<?xml version="1.0" standalone="no"?>
<!DOCTYPE svg PUBLIC "-//W3C//DTD SVG 1.1//EN" "http://www.w3.org/Graphics/SVG/1.1/DTD/svg11.dtd" >
<svg xmlns="http://www.w3.org/2000/svg">
<defs>
  <font id="iconly" horiz-adv-x="1024">
    <font-face font-family="iconly"
      units-per-em="1024" ascent="896"
      descent="128" />
    <missing-glyph horiz-adv-x="0" />
    <glyph glyph-name="cart"
      unicode="&#xE000;"
      horiz-adv-x="1024" d="M851.627 513.707C823.012 545.28 779.9469999999999 563.597 720.213 570.027V602.453C720.213 660.8779999999999 695.467 717.198 651.947 756.453C607.972 796.558 550.797 815.333 491.52 809.813C389.518 799.973 303.787 701.4399999999999 303.787 594.7729999999999V570.027C244.053 563.597 200.932 545.28 172.373 513.707C130.958 467.627 132.267 406.187 136.933 363.52L166.798 125.895C175.788 42.667 209.465 -42.667 392.932 -42.667H631.0120000000001C814.4780000000001 -42.667 848.212 42.6669999999999 857.1450000000001 125.44L887.0120000000001 363.9179999999999C891.7320000000001 406.1879999999999 892.5870000000001 467.6279999999999 851.6270000000001 513.7079999999999zM497.4929999999999 750.477C540.16 754.347 580.665 741.092 612.2379999999999 712.533C643.4129999999999 684.373 660.8779999999999 644.267 660.8779999999999 602.453V572.587H363.065V594.773C363.065 670.72 425.813 743.653 497.493 750.4780000000001zM359.253 334.905H358.798C335.36 334.905 316.132 354.1329999999999 316.132 377.572C316.132 401.067 335.36 420.238 358.798 420.238C382.692 420.238 401.92 401.068 401.92 377.572C401.92 354.132 382.692 334.905 359.253 334.905zM657.9199999999998 334.905H657.4649999999998C634.0269999999998 334.905 614.7979999999998 354.1329999999999 614.7979999999998 377.572C614.7979999999998 401.067 634.0279999999998 420.238 657.4649999999998 420.238C681.3579999999998 420.238 700.5869999999998 401.068 700.5869999999998 377.572C700.5869999999998 354.132 681.3569999999997 334.905 657.9199999999997 334.905z" />
    <glyph glyph-name="cart-1"
      unicode="&#x63;&#x61;&#x72;&#x74;"
      horiz-adv-x="1024" d="M851.627 513.707C823.012 545.28 779.9469999999999 563.597 720.213 570.027V602.453C720.213 660.8779999999999 695.467 717.198 651.947 756.453C607.972 796.558 550.797 815.333 491.52 809.813C389.518 799.973 303.787 701.4399999999999 303.787 594.7729999999999V570.027C244.053 563.597 200.932 545.28 172.373 513.707C130.958 467.627 132.267 406.187 136.933 363.52L166.798 125.895C175.788 42.667 209.465 -42.667 392.932 -42.667H631.0120000000001C814.4780000000001 -42.667 848.212 42.6669999999999 857.1450000000001 125.44L887.0120000000001 363.9179999999999C891.7320000000001 406.1879999999999 892.5870000000001 467.6279999999999 851.6270000000001 513.7079999999999zM497.4929999999999 750.477C540.16 754.347 580.665 741.092 612.2379999999999 712.533C643.4129999999999 684.373 660.8779999999999 644.267 660.8779999999999 602.453V572.587H363.065V594.773C363.065 670.72 425.813 743.653 497.493 750.4780000000001zM359.253 334.905H358.798C335.36 334.905 316.132 354.1329999999999 316.132 377.572C316.132 401.067 335.36 420.238 358.798 420.238C382.692 420.238 401.92 401.068 401.92 377.572C401.92 354.132 382.692 334.905 359.253 334.905zM657.9199999999998 334.905H657.4649999999998C634.0269999999998 334.905 614.7979999999998 354.1329999999999 614.7979999999998 377.572C614.7979999999998 401.067 634.0279999999998 420.238 657.4649999999998 420.238C681.3579999999998 420.238 700.5869999999998 401.068 700.5869999999998 377.572C700.5869999999998 354.132 681.3569999999997 334.905 657.9199999999997 334.905z" />
    <glyph glyph-name="profile-circle"
      unicode="&#xE001;"
      horiz-adv-x="1024" d="M938.667 384C938.667 619.1220000000001 747.1220000000001 810.6669999999999 512 810.6669999999999C276.878 810.667 85.333 619.1220000000001 85.333 384C85.333 260.2670000000001 138.695 148.8779999999999 223.118 70.827C223.118 70.427 223.118 70.427 222.72 69.973C226.987 65.707 232.107 62.293 236.373 58.425C238.933 56.3199999999999 241.038 54.2149999999999 243.598 52.452C251.335 46.08 259.812 40.107 267.948 34.132C270.962 31.972 273.522 30.322 276.48 28.16C284.615 22.6419999999999 293.092 17.4649999999999 302.08 12.8C305.038 11.093 308.508 8.9879999999999 311.467 7.2249999999999C320 2.5599999999999 328.932 -1.7070000000001 338.317 -5.575C341.7870000000001 -7.225 345.145 -8.9880000000001 348.615 -10.24C358.002 -14.1080000000001 367.332 -17.522 376.718 -20.48C380.1880000000001 -21.788 383.545 -23.04 387.0150000000001 -23.893C397.1980000000001 -26.908 407.4380000000001 -29.413 417.735 -31.9730000000001C420.6930000000001 -32.883 423.652 -33.735 427.122 -34.133C439.0680000000001 -36.693 451.015 -38.4000000000001 463.36 -39.7080000000001C465.067 -39.7080000000001 466.773 -40.1080000000001 468.48 -40.5050000000001C482.987 -41.8130000000001 497.493 -42.6670000000001 512 -42.6670000000001C526.507 -42.6670000000001 541.013 -41.8130000000001 555.122 -40.5050000000001C556.7719999999999 -40.5050000000001 558.535 -40.1070000000001 560.242 -39.7080000000001C572.587 -38.4000000000001 584.5319999999999 -36.6930000000001 596.48 -34.133C599.438 -33.735 602.453 -32.427 605.867 -31.9730000000001C616.107 -29.4130000000001 626.8019999999999 -27.307 636.587 -23.893C640 -22.643 643.413 -21.3330000000001 646.827 -20.48C656.213 -17.067 665.997 -14.1080000000001 674.987 -10.24C678.4 -8.9880000000001 681.813 -7.225 685.227 -5.575C694.2149999999999 -1.707 703.1469999999999 2.5599999999999 712.135 7.2249999999999C715.548 8.9879999999999 718.507 11.093 721.465 12.8C729.998 17.92 738.532 22.6419999999999 747.1220000000001 28.16C750.08 29.867 752.6400000000001 31.972 755.6550000000001 34.1329999999999C764.1320000000001 40.107 772.267 46.0799999999999 779.9470000000001 52.453C782.5070000000001 54.6129999999999 784.6670000000001 56.775 787.2270000000001 58.425C791.8930000000001 62.293 796.5570000000001 66.1049999999999 800.8820000000001 69.973C800.8820000000001 70.428 800.8820000000001 70.428 800.427 70.827C885.3050000000001 148.877 938.667 260.2670000000001 938.667 384zM722.773 171.975C607.118 249.572 417.735 249.572 301.2270000000001 171.975C282.4530000000001 159.573 267.093 145.067 254.2930000000001 129.308C189.44 195.015 149.333 285.0130000000001 149.333 384C149.333 584.135 311.865 746.6669999999999 512 746.6669999999999C712.135 746.6669999999999 874.6669999999999 584.135 874.6669999999999 384C874.6669999999999 285.0130000000001 834.56 195.015 769.7069999999999 129.308C757.3049999999998 145.068 741.5469999999999 159.573 722.7729999999999 171.975zM512 600.2919999999999C423.652 600.2919999999999 352.028 528.612 352.028 440.32C352.028 353.6779999999999 419.8400000000001 283.3069999999999 509.895 280.747H517.5749999999999C603.762 283.762 671.5729999999999 353.6769999999999 671.972 440.32C671.972 528.612 600.348 600.2919999999999 512 600.2919999999999z" />
    <glyph glyph-name="profile-circle-1"
      unicode="&#x70;&#x72;&#x6F;&#x66;&#x69;&#x6C;&#x65;&#x5F;&#x63;&#x69;&#x72;&#x63;&#x6C;&#x65;"
      horiz-adv-x="1024" d="M938.667 384C938.667 619.1220000000001 747.1220000000001 810.6669999999999 512 810.6669999999999C276.878 810.667 85.333 619.1220000000001 85.333 384C85.333 260.2670000000001 138.695 148.8779999999999 223.118 70.827C223.118 70.427 223.118 70.427 222.72 69.973C226.987 65.707 232.107 62.293 236.373 58.425C238.933 56.3199999999999 241.038 54.2149999999999 243.598 52.452C251.335 46.08 259.812 40.107 267.948 34.132C270.962 31.972 273.522 30.322 276.48 28.16C284.615 22.6419999999999 293.092 17.4649999999999 302.08 12.8C305.038 11.093 308.508 8.9879999999999 311.467 7.2249999999999C320 2.5599999999999 328.932 -1.7070000000001 338.317 -5.575C341.7870000000001 -7.225 345.145 -8.9880000000001 348.615 -10.24C358.002 -14.1080000000001 367.332 -17.522 376.718 -20.48C380.1880000000001 -21.788 383.545 -23.04 387.0150000000001 -23.893C397.1980000000001 -26.908 407.4380000000001 -29.413 417.735 -31.9730000000001C420.6930000000001 -32.883 423.652 -33.735 427.122 -34.133C439.0680000000001 -36.693 451.015 -38.4000000000001 463.36 -39.7080000000001C465.067 -39.7080000000001 466.773 -40.1080000000001 468.48 -40.5050000000001C482.987 -41.8130000000001 497.493 -42.6670000000001 512 -42.6670000000001C526.507 -42.6670000000001 541.013 -41.8130000000001 555.122 -40.5050000000001C556.7719999999999 -40.5050000000001 558.535 -40.1070000000001 560.242 -39.7080000000001C572.587 -38.4000000000001 584.5319999999999 -36.6930000000001 596.48 -34.133C599.438 -33.735 602.453 -32.427 605.867 -31.9730000000001C616.107 -29.4130000000001 626.8019999999999 -27.307 636.587 -23.893C640 -22.643 643.413 -21.3330000000001 646.827 -20.48C656.213 -17.067 665.997 -14.1080000000001 674.987 -10.24C678.4 -8.9880000000001 681.813 -7.225 685.227 -5.575C694.2149999999999 -1.707 703.1469999999999 2.5599999999999 712.135 7.2249999999999C715.548 8.9879999999999 718.507 11.093 721.465 12.8C729.998 17.92 738.532 22.6419999999999 747.1220000000001 28.16C750.08 29.867 752.6400000000001 31.972 755.6550000000001 34.1329999999999C764.1320000000001 40.107 772.267 46.0799999999999 779.9470000000001 52.453C782.5070000000001 54.6129999999999 784.6670000000001 56.775 787.2270000000001 58.425C791.8930000000001 62.293 796.5570000000001 66.1049999999999 800.8820000000001 69.973C800.8820000000001 70.428 800.8820000000001 70.428 800.427 70.827C885.3050000000001 148.877 938.667 260.2670000000001 938.667 384zM722.773 171.975C607.118 249.572 417.735 249.572 301.2270000000001 171.975C282.4530000000001 159.573 267.093 145.067 254.2930000000001 129.308C189.44 195.015 149.333 285.0130000000001 149.333 384C149.333 584.135 311.865 746.6669999999999 512 746.6669999999999C712.135 746.6669999999999 874.6669999999999 584.135 874.6669999999999 384C874.6669999999999 285.0130000000001 834.56 195.015 769.7069999999999 129.308C757.3049999999998 145.068 741.5469999999999 159.573 722.7729999999999 171.975zM512 600.2919999999999C423.652 600.2919999999999 352.028 528.612 352.028 440.32C352.028 353.6779999999999 419.8400000000001 283.3069999999999 509.895 280.747H517.5749999999999C603.762 283.762 671.5729999999999 353.6769999999999 671.972 440.32C671.972 528.612 600.348 600.2919999999999 512 600.2919999999999z" />
    <glyph glyph-name="arrow-upright"
      unicode="&#xE002;"
      horiz-adv-x="1024" d="M219.802 164.198L731.802 676.198Q746.802 691.2 768 691.2Q789.197 691.2 804.198 676.198Q819.1999999999999 661.198 819.1999999999999 640Q819.1999999999999 618.803 804.198 603.802L292.198 91.802Q277.198 76.8 256 76.8Q234.803 76.8 219.802 91.8019999999999Q204.8 106.8019999999999 204.8 127.9999999999999Q204.8 149.1969999999999 219.802 164.1979999999999zM352 691.2H768Q789.197 691.2 804.198 676.198Q819.1999999999999 661.198 819.1999999999999 640V224Q819.1999999999999 202.803 804.198 187.802Q789.198 172.8000000000001 768 172.8000000000001Q746.803 172.8000000000001 731.802 187.802Q716.8000000000001 202.802 716.8000000000001 224V588.8H352Q330.803 588.8 315.802 603.802Q300.8 618.802 300.8 640Q300.8 661.197 315.802 676.1980000000001Q330.802 691.2 352 691.2z" />
    <glyph glyph-name="arrow-upright-1"
      unicode="&#x61;&#x72;&#x72;&#x6F;&#x77;&#x5F;&#x75;&#x70;&#x72;&#x69;&#x67;&#x68;&#x74;"
      horiz-adv-x="1024" d="M219.802 164.198L731.802 676.198Q746.802 691.2 768 691.2Q789.197 691.2 804.198 676.198Q819.1999999999999 661.198 819.1999999999999 640Q819.1999999999999 618.803 804.198 603.802L292.198 91.802Q277.198 76.8 256 76.8Q234.803 76.8 219.802 91.8019999999999Q204.8 106.8019999999999 204.8 127.9999999999999Q204.8 149.1969999999999 219.802 164.1979999999999zM352 691.2H768Q789.197 691.2 804.198 676.198Q819.1999999999999 661.198 819.1999999999999 640V224Q819.1999999999999 202.803 804.198 187.802Q789.198 172.8000000000001 768 172.8000000000001Q746.803 172.8000000000001 731.802 187.802Q716.8000000000001 202.802 716.8000000000001 224V588.8H352Q330.803 588.8 315.802 603.802Q300.8 618.802 300.8 640Q300.8 661.197 315.802 676.1980000000001Q330.802 691.2 352 691.2z" />
    <glyph glyph-name="call-center"
      unicode="&#xE003;"
      horiz-adv-x="1024" d="M832 496C832 580.864 798.293 662.2719999999999 738.26 722.26C678.273 782.294 596.865 816 512 816C428.16 816 347.69 783.1469999999999 287.8300000000001 724.437C228.01 665.727 193.58 585.9 192 502.1C166.528 502.1 142.123 491.947 124.117 473.94C106.112 455.98 96 431.53 96 406.1V278.1C96 252.63 106.112 228.1800000000001 124.117 210.22C142.123 192.2130000000001 166.527 182.0600000000001 192 182.0600000000001H256C281.472 182.0600000000001 305.877 192.2130000000001 323.883 210.22C341.888 228.18 352 252.63 352 278.1V406.1C352 431.5300000000001 341.888 455.98 323.883 473.9400000000001C305.877 491.9470000000001 281.473 502.1000000000001 256 502.1000000000001C257.58 568.9170000000001 285.27 632.49 333.1 679.1680000000001C380.927 725.888 445.14 752 512 752C579.883 752 644.992 725.035 693.035 677.035C741.035 628.992 768 563.883 768 496C742.528 496 718.123 485.888 700.117 467.883C682.112 449.877 672 425.473 672 400V272C672.085 250.837 679.168 230.3150000000001 692.14 213.59C705.067 196.864 723.1999999999999 184.875 743.68 179.5C719.4879999999999 135.552 679.04 102.827 631.04 88.3199999999999C623.36 104.9169999999999 611.072 118.997 595.627 128.853C580.224 138.7530000000001 562.304 144 544 144H480C454.528 144 430.123 133.888 412.117 115.8830000000001C394.112 97.877 384 73.473 384 48C384 22.528 394.112 -1.877 412.117 -19.883C430.123 -37.888 454.527 -48 480 -48H544C565.205 -47.915 585.77 -40.79 602.496 -27.7329999999999C619.221 -14.7199999999999 631.168 3.4570000000001 636.501 23.979C675.798 33.5790000000001 712.278 52.394 742.913 78.8040000000001C773.59 105.215 797.525 138.54 812.8 176H832C857.472 176 881.877 186.112 899.883 204.117C917.888 222.1230000000001 928 246.5270000000001 928 272V400C928 425.472 917.888 449.877 899.883 467.883C881.877 485.888 857.473 496 832 496zM288 406.1V278.1C288 269.61 284.63 261.4600000000001 278.613 255.4450000000001C272.64 249.4720000000001 264.491 246.101 256 246.101H192C183.51 246.101 175.36 249.473 169.387 255.4460000000001C163.37 261.4600000000001 160 269.61 160 278.1V406.1C160 414.55 163.37 422.7000000000001 169.387 428.7150000000001C175.36 434.6880000000001 183.509 438.1010000000001 192 438.1010000000001H256C264.49 438.1010000000001 272.64 434.6890000000001 278.613 428.7160000000001C284.63 422.7 288 414.55 288 406.1zM544 16H480C471.51 16 463.36 19.37 457.387 25.3869999999999C451.37 31.36 448 39.51 448 48C448 56.49 451.37 64.64 457.387 70.6130000000001C463.36 76.63 471.51 80 480 80H544C552.49 80 560.64 76.63 566.613 70.6130000000001C572.63 64.64 576 56.49 576 48C576 39.51 572.63 31.36 566.613 25.3869999999999C560.64 19.37 552.49 16 544 16zM864 272C864 263.51 860.63 255.36 854.613 249.387C848.64 243.37 840.49 240 832 240H768C759.51 240 751.36 243.37 745.387 249.387C739.37 255.36 736 263.51 736 272V400C736 408.49 739.37 416.64 745.387 422.613C751.36 428.63 759.51 432 768 432H832C840.49 432 848.64 428.63 854.613 422.613C860.63 416.64 864 408.49 864 400V272z" />
    <glyph glyph-name="call-center-1"
      unicode="&#x63;&#x61;&#x6C;&#x6C;&#x5F;&#x63;&#x65;&#x6E;&#x74;&#x65;&#x72;"
      horiz-adv-x="1024" d="M832 496C832 580.864 798.293 662.2719999999999 738.26 722.26C678.273 782.294 596.865 816 512 816C428.16 816 347.69 783.1469999999999 287.8300000000001 724.437C228.01 665.727 193.58 585.9 192 502.1C166.528 502.1 142.123 491.947 124.117 473.94C106.112 455.98 96 431.53 96 406.1V278.1C96 252.63 106.112 228.1800000000001 124.117 210.22C142.123 192.2130000000001 166.527 182.0600000000001 192 182.0600000000001H256C281.472 182.0600000000001 305.877 192.2130000000001 323.883 210.22C341.888 228.18 352 252.63 352 278.1V406.1C352 431.5300000000001 341.888 455.98 323.883 473.9400000000001C305.877 491.9470000000001 281.473 502.1000000000001 256 502.1000000000001C257.58 568.9170000000001 285.27 632.49 333.1 679.1680000000001C380.927 725.888 445.14 752 512 752C579.883 752 644.992 725.035 693.035 677.035C741.035 628.992 768 563.883 768 496C742.528 496 718.123 485.888 700.117 467.883C682.112 449.877 672 425.473 672 400V272C672.085 250.837 679.168 230.3150000000001 692.14 213.59C705.067 196.864 723.1999999999999 184.875 743.68 179.5C719.4879999999999 135.552 679.04 102.827 631.04 88.3199999999999C623.36 104.9169999999999 611.072 118.997 595.627 128.853C580.224 138.7530000000001 562.304 144 544 144H480C454.528 144 430.123 133.888 412.117 115.8830000000001C394.112 97.877 384 73.473 384 48C384 22.528 394.112 -1.877 412.117 -19.883C430.123 -37.888 454.527 -48 480 -48H544C565.205 -47.915 585.77 -40.79 602.496 -27.7329999999999C619.221 -14.7199999999999 631.168 3.4570000000001 636.501 23.979C675.798 33.5790000000001 712.278 52.394 742.913 78.8040000000001C773.59 105.215 797.525 138.54 812.8 176H832C857.472 176 881.877 186.112 899.883 204.117C917.888 222.1230000000001 928 246.5270000000001 928 272V400C928 425.472 917.888 449.877 899.883 467.883C881.877 485.888 857.473 496 832 496zM288 406.1V278.1C288 269.61 284.63 261.4600000000001 278.613 255.4450000000001C272.64 249.4720000000001 264.491 246.101 256 246.101H192C183.51 246.101 175.36 249.473 169.387 255.4460000000001C163.37 261.4600000000001 160 269.61 160 278.1V406.1C160 414.55 163.37 422.7000000000001 169.387 428.7150000000001C175.36 434.6880000000001 183.509 438.1010000000001 192 438.1010000000001H256C264.49 438.1010000000001 272.64 434.6890000000001 278.613 428.7160000000001C284.63 422.7 288 414.55 288 406.1zM544 16H480C471.51 16 463.36 19.37 457.387 25.3869999999999C451.37 31.36 448 39.51 448 48C448 56.49 451.37 64.64 457.387 70.6130000000001C463.36 76.63 471.51 80 480 80H544C552.49 80 560.64 76.63 566.613 70.6130000000001C572.63 64.64 576 56.49 576 48C576 39.51 572.63 31.36 566.613 25.3869999999999C560.64 19.37 552.49 16 544 16zM864 272C864 263.51 860.63 255.36 854.613 249.387C848.64 243.37 840.49 240 832 240H768C759.51 240 751.36 243.37 745.387 249.387C739.37 255.36 736 263.51 736 272V400C736 408.49 739.37 416.64 745.387 422.613C751.36 428.63 759.51 432 768 432H832C840.49 432 848.64 428.63 854.613 422.613C860.63 416.64 864 408.49 864 400V272z" />
    <glyph glyph-name="home"
      unicode="&#xE004;"
      horiz-adv-x="1024" d="M888.704 554.24L609.28 777.856C554.624 821.376 469.312 821.76 415.104 778.24L135.68 554.24C95.552 522.24 71.232 458.24 79.744 407.9360000000001L133.504 86.2080000000001C145.92 14.08 212.864 -42.6239999999999 285.824 -42.6239999999999H738.112C810.24 -42.6239999999999 878.4639999999999 15.3600000000001 890.88 86.6560000000001L944.64 408.3200000000001C952.32 458.2400000000001 928 522.24 888.704 554.24zM544 128C544 110.528 529.472 96 512 96C494.464 96 480 110.528 480 128V256C480 273.5360000000001 494.464 288 512 288C529.472 288 544 273.536 544 256V128z" />
    <glyph glyph-name="home-1"
      unicode="&#x68;&#x6F;&#x6D;&#x65;"
      horiz-adv-x="1024" d="M888.704 554.24L609.28 777.856C554.624 821.376 469.312 821.76 415.104 778.24L135.68 554.24C95.552 522.24 71.232 458.24 79.744 407.9360000000001L133.504 86.2080000000001C145.92 14.08 212.864 -42.6239999999999 285.824 -42.6239999999999H738.112C810.24 -42.6239999999999 878.4639999999999 15.3600000000001 890.88 86.6560000000001L944.64 408.3200000000001C952.32 458.2400000000001 928 522.24 888.704 554.24zM544 128C544 110.528 529.472 96 512 96C494.464 96 480 110.528 480 128V256C480 273.5360000000001 494.464 288 512 288C529.472 288 544 273.536 544 256V128z" />
    <glyph glyph-name="document"
      unicode="&#xE005;"
      horiz-adv-x="1024" d="M682.688 810.688H341.312C192 810.688 128 725.376 128 597.376V170.688C128 42.688 192 -42.624 341.312 -42.624H682.688C832 -42.624 896 42.688 896 170.688V597.376C896 725.376 832 810.688 682.688 810.688zM341.312 373.376H512C529.472 373.376 544 358.848 544 341.376C544 323.8399999999999 529.472 309.376 512 309.376H341.312C323.8400000000001 309.376 309.312 323.8400000000001 309.312 341.376C309.312 358.848 323.8400000000001 373.376 341.312 373.376zM682.688 138.688H341.312C323.8400000000001 138.688 309.312 153.216 309.312 170.688S323.8400000000001 202.688 341.312 202.688H682.688C700.16 202.688 714.688 188.16 714.688 170.688S700.16 138.688 682.688 138.688zM789.312 501.376H704C639.168 501.376 586.688 553.856 586.688 618.688V704C586.688 721.5360000000001 601.152 736 618.688 736C636.16 736 650.688 721.5360000000001 650.688 704V618.688C650.688 589.248 674.56 565.376 704 565.376H789.312C806.848 565.376 821.312 550.848 821.312 533.376C821.312 515.8399999999999 806.848 501.376 789.312 501.376z" />
    <glyph glyph-name="document-1"
      unicode="&#x64;&#x6F;&#x63;&#x75;&#x6D;&#x65;&#x6E;&#x74;"
      horiz-adv-x="1024" d="M682.688 810.688H341.312C192 810.688 128 725.376 128 597.376V170.688C128 42.688 192 -42.624 341.312 -42.624H682.688C832 -42.624 896 42.688 896 170.688V597.376C896 725.376 832 810.688 682.688 810.688zM341.312 373.376H512C529.472 373.376 544 358.848 544 341.376C544 323.8399999999999 529.472 309.376 512 309.376H341.312C323.8400000000001 309.376 309.312 323.8400000000001 309.312 341.376C309.312 358.848 323.8400000000001 373.376 341.312 373.376zM682.688 138.688H341.312C323.8400000000001 138.688 309.312 153.216 309.312 170.688S323.8400000000001 202.688 341.312 202.688H682.688C700.16 202.688 714.688 188.16 714.688 170.688S700.16 138.688 682.688 138.688zM789.312 501.376H704C639.168 501.376 586.688 553.856 586.688 618.688V704C586.688 721.5360000000001 601.152 736 618.688 736C636.16 736 650.688 721.5360000000001 650.688 704V618.688C650.688 589.248 674.56 565.376 704 565.376H789.312C806.848 565.376 821.312 550.848 821.312 533.376C821.312 515.8399999999999 806.848 501.376 789.312 501.376z" />
    <glyph glyph-name="order"
      unicode="&#xE006;"
      horiz-adv-x="1024" d="M937.408 128V85.376C937.408 14.976 937.408 -42.624 809.408 -42.624H212.032C84.032 -42.624 84.032 14.976 84.032 85.376V128C84.032 151.4880000000001 103.232 170.688 126.72 170.688H894.72C918.208 170.688 937.408 151.488 937.408 128zM614.848 675.008C616.9599999999999 683.52 618.24 691.648 618.688 700.6080000000001C619.968 750.08 589.696 793.6 541.888 806.4000000000001C470.208 826.048 405.3760000000001 772.288 405.3760000000001 704C405.3760000000001 693.76 406.656 684.3520000000001 409.216 675.008C255.168 642.112 139.52 505.152 139.52 341.312V277.312C139.52 253.8880000000001 158.72 234.688 182.208 234.688H841.4080000000001C864.8960000000002 234.688 884.0320000000002 253.8880000000001 884.0320000000002 277.312V341.312C884.0320000000002 505.152 768.8960000000002 641.7280000000001 614.8480000000002 675.008zM640 394.688H384C366.528 394.688 352 409.152 352 426.688C352 444.16 366.528 458.688 384 458.688H640C657.5360000000001 458.688 672 444.16 672 426.688C672 409.152 657.536 394.688 640 394.688z" />
    <glyph glyph-name="order-1"
      unicode="&#x6F;&#x72;&#x64;&#x65;&#x72;"
      horiz-adv-x="1024" d="M937.408 128V85.376C937.408 14.976 937.408 -42.624 809.408 -42.624H212.032C84.032 -42.624 84.032 14.976 84.032 85.376V128C84.032 151.4880000000001 103.232 170.688 126.72 170.688H894.72C918.208 170.688 937.408 151.488 937.408 128zM614.848 675.008C616.9599999999999 683.52 618.24 691.648 618.688 700.6080000000001C619.968 750.08 589.696 793.6 541.888 806.4000000000001C470.208 826.048 405.3760000000001 772.288 405.3760000000001 704C405.3760000000001 693.76 406.656 684.3520000000001 409.216 675.008C255.168 642.112 139.52 505.152 139.52 341.312V277.312C139.52 253.8880000000001 158.72 234.688 182.208 234.688H841.4080000000001C864.8960000000002 234.688 884.0320000000002 253.8880000000001 884.0320000000002 277.312V341.312C884.0320000000002 505.152 768.8960000000002 641.7280000000001 614.8480000000002 675.008zM640 394.688H384C366.528 394.688 352 409.152 352 426.688C352 444.16 366.528 458.688 384 458.688H640C657.5360000000001 458.688 672 444.16 672 426.688C672 409.152 657.536 394.688 640 394.688z" />
    <glyph glyph-name="arrow-down"
      unicode="&#xE007;"
      horiz-adv-x="1024" d="M872.533 491.477L594.347 213.29Q560.34 179.286 512 179.286Q463.66 179.286 429.653 213.2919999999999L151.467 491.478Q142.08 500.865 142.08 514.134Q142.08 527.361 151.467 536.748Q160.811 546.134 174.08 546.134Q187.35 546.134 196.693 536.748L474.88 258.56Q490.155 243.285 512 243.285T549.12 258.56L827.307 536.747Q836.6510000000001 546.133 849.9200000000001 546.133Q863.19 546.133 872.5330000000001 536.747Q881.9200000000001 527.3599999999999 881.9200000000001 514.133Q881.9200000000001 500.863 872.5330000000001 491.477z" />
    <glyph glyph-name="arrow-down-1"
      unicode="&#x61;&#x72;&#x72;&#x6F;&#x77;&#x5F;&#x64;&#x6F;&#x77;&#x6E;"
      horiz-adv-x="1024" d="M872.533 491.477L594.347 213.29Q560.34 179.286 512 179.286Q463.66 179.286 429.653 213.2919999999999L151.467 491.478Q142.08 500.865 142.08 514.134Q142.08 527.361 151.467 536.748Q160.811 546.134 174.08 546.134Q187.35 546.134 196.693 536.748L474.88 258.56Q490.155 243.285 512 243.285T549.12 258.56L827.307 536.747Q836.6510000000001 546.133 849.9200000000001 546.133Q863.19 546.133 872.5330000000001 536.747Q881.9200000000001 527.3599999999999 881.9200000000001 514.133Q881.9200000000001 500.863 872.5330000000001 491.477z" />
    <glyph glyph-name="email-track"
      unicode="&#xE008;"
      horiz-adv-x="1024" d="M53.333 533.3330000000001Q53.333 778.667 298.6670000000001 778.667H725.3330000000001Q970.6670000000001 778.667 970.6670000000001 533.3330000000001V234.6670000000001Q970.6670000000001 -10.6669999999999 725.3330000000001 -10.6669999999999H298.667Q285.397 -10.6669999999999 276.053 -1.28Q266.667 8.0640000000001 266.667 21.3330000000001Q266.667 34.6030000000001 276.053 43.9470000000001Q285.397 53.3330000000001 298.667 53.3330000000001H725.333Q906.667 53.3330000000001 906.667 234.6670000000002V533.3330000000001Q906.667 714.667 725.3329999999999 714.667H298.667Q117.333 714.667 117.333 533.3330000000001Q117.333 520.0630000000001 107.947 510.72Q98.603 501.333 85.333 501.333Q72.063 501.333 62.72 510.72Q53.333 520.0640000000001 53.333 533.3330000000001zM745.3 486.997L611.756 380.3300000000001Q511.788 300.7570000000001 411.862 380.288L278.657 487.04Q268.332 495.317 266.881 508.5Q265.388 521.685 273.708 532.01Q281.985 542.336 295.168 543.787Q308.353 545.28 318.678 536.96L451.713 430.38Q511.788 382.55 571.8199999999999 430.336L705.3649999999999 537.003Q715.733 545.28 728.8749999999999 543.787Q742.0589999999999 542.337 750.3349999999999 531.9670000000001Q758.6129999999999 521.6 757.1199999999999 508.4590000000001Q755.6699999999998 495.2740000000001 745.2999999999998 486.996zM85.334 224H341.334Q354.604 224 363.948 214.6130000000001Q373.334 205.269 373.334 192Q373.334 178.73 363.948 169.387Q354.603 160 341.3330000000001 160H85.333Q72.063 160 62.72 169.387Q53.333 178.731 53.333 192Q53.333 205.27 62.72 214.6130000000001Q72.064 224 85.333 224zM85.334 394.6670000000001H213.334Q226.604 394.6670000000001 235.948 385.2800000000001Q245.334 375.9360000000001 245.334 362.6670000000001Q245.334 349.3970000000001 235.948 340.053Q226.604 330.6670000000001 213.334 330.6670000000001H85.334Q72.064 330.6670000000001 62.721 340.053Q53.334 349.3970000000001 53.334 362.6670000000001Q53.334 375.937 62.721 385.2800000000001Q72.065 394.6670000000001 85.334 394.6670000000001z" />
    <glyph glyph-name="email-track-1"
      unicode="&#x65;&#x6D;&#x61;&#x69;&#x6C;&#x5F;&#x74;&#x72;&#x61;&#x63;&#x6B;"
      horiz-adv-x="1024" d="M53.333 533.3330000000001Q53.333 778.667 298.6670000000001 778.667H725.3330000000001Q970.6670000000001 778.667 970.6670000000001 533.3330000000001V234.6670000000001Q970.6670000000001 -10.6669999999999 725.3330000000001 -10.6669999999999H298.667Q285.397 -10.6669999999999 276.053 -1.28Q266.667 8.0640000000001 266.667 21.3330000000001Q266.667 34.6030000000001 276.053 43.9470000000001Q285.397 53.3330000000001 298.667 53.3330000000001H725.333Q906.667 53.3330000000001 906.667 234.6670000000002V533.3330000000001Q906.667 714.667 725.3329999999999 714.667H298.667Q117.333 714.667 117.333 533.3330000000001Q117.333 520.0630000000001 107.947 510.72Q98.603 501.333 85.333 501.333Q72.063 501.333 62.72 510.72Q53.333 520.0640000000001 53.333 533.3330000000001zM745.3 486.997L611.756 380.3300000000001Q511.788 300.7570000000001 411.862 380.288L278.657 487.04Q268.332 495.317 266.881 508.5Q265.388 521.685 273.708 532.01Q281.985 542.336 295.168 543.787Q308.353 545.28 318.678 536.96L451.713 430.38Q511.788 382.55 571.8199999999999 430.336L705.3649999999999 537.003Q715.733 545.28 728.8749999999999 543.787Q742.0589999999999 542.337 750.3349999999999 531.9670000000001Q758.6129999999999 521.6 757.1199999999999 508.4590000000001Q755.6699999999998 495.2740000000001 745.2999999999998 486.996zM85.334 224H341.334Q354.604 224 363.948 214.6130000000001Q373.334 205.269 373.334 192Q373.334 178.73 363.948 169.387Q354.603 160 341.3330000000001 160H85.333Q72.063 160 62.72 169.387Q53.333 178.731 53.333 192Q53.333 205.27 62.72 214.6130000000001Q72.064 224 85.333 224zM85.334 394.6670000000001H213.334Q226.604 394.6670000000001 235.948 385.2800000000001Q245.334 375.9360000000001 245.334 362.6670000000001Q245.334 349.3970000000001 235.948 340.053Q226.604 330.6670000000001 213.334 330.6670000000001H85.334Q72.064 330.6670000000001 62.721 340.053Q53.334 349.3970000000001 53.334 362.6670000000001Q53.334 375.937 62.721 385.2800000000001Q72.065 394.6670000000001 85.334 394.6670000000001z" />
    <glyph glyph-name="instagram-2"
      unicode="&#xE009;"
      horiz-adv-x="1024" d="M512 603.0930000000001C468.693 603.0930000000001 426.325 590.251 390.272 566.143C354.262 542.08 326.187 507.861 309.589 467.84C292.991 427.8200000000001 288.682 383.7440000000001 297.129 341.2480000000001C305.579 298.7520000000001 326.442 259.712 357.076 229.0780000000001C387.711 198.4430000000001 426.7510000000001 177.5780000000001 469.246 169.1310000000001C511.7430000000001 160.6410000000001 555.818 164.9930000000001 595.839 181.5910000000001C635.859 198.1880000000001 670.0790000000001 226.2610000000001 694.186 262.2730000000002C718.25 298.3260000000002 731.092 340.6530000000002 731.092 384.0010000000002C731.092 412.7580000000002 725.418 441.2610000000002 714.41 467.8410000000001C703.403 494.4210000000001 687.275 518.5710000000001 666.923 538.9240000000001C646.571 559.2760000000001 622.421 575.4040000000001 595.84 586.412C569.26 597.422 540.8000000000001 603.095 512 603.095zM512 241.749C483.883 241.749 456.363 250.111 432.98 265.727C409.6 281.343 391.38 303.572 380.587 329.557C369.835 355.54 367.019 384.17 372.523 411.7320000000001C377.983 439.338 391.553 464.682 411.435 484.564C431.317 504.447 456.6609999999999 518.014 484.2669999999999 523.476C511.829 528.98 540.459 526.164 566.443 515.412C592.427 504.618 614.656 486.399 630.273 463.018C645.888 439.635 654.251 412.115 654.251 383.998C654.251 365.31 650.581 346.8349999999999 643.414 329.555C636.289 312.318 625.794 296.617 612.566 283.433C599.3820000000001 270.206 583.681 259.7100000000001 566.4440000000001 252.5850000000001C549.1640000000001 245.4170000000001 530.6890000000001 241.7470000000001 512.0010000000001 241.7470000000001zM936.064 559.914C935.381 595.2840000000001 928.684 630.3140000000001 916.267 663.4660000000001C905.557 691.9240000000001 888.7470000000001 717.738 867.072 739.0710000000001C845.739 760.7460000000001 819.968 777.556 791.509 788.2660000000001C758.356 800.682 723.327 807.3800000000001 687.956 808.0630000000001C642.431 810.153 627.8820000000001 810.666 512.042 810.666C396.1590000000001 810.666 381.61 810.196 336.0840000000001 808.0630000000001C300.7140000000001 807.3800000000001 265.6840000000001 800.6830000000001 232.5320000000001 788.2660000000001C204.0740000000001 777.556 178.2600000000001 760.7460000000001 156.927 739.0710000000001C135.21 717.738 118.442 691.9670000000001 107.732 663.4660000000001C95.316 630.3140000000001 88.618 595.2840000000001 87.935 559.914C85.802 514.431 85.332 499.8820000000001 85.332 383.999S85.802 253.6090000000001 87.935 208.0840000000001C88.618 172.7140000000001 95.315 137.6840000000001 107.732 104.532C118.442 76.032 135.21 50.26 156.927 28.927C178.26 7.2520000000001 204.074 -9.516 232.5320000000001 -20.268C265.6840000000001 -32.6840000000001 300.7140000000001 -39.3820000000001 336.0840000000001 -40.0650000000001C381.6100000000001 -42.1550000000001 396.1160000000001 -42.668 511.999 -42.668S642.431 -42.198 687.914 -40.0650000000001C723.284 -39.3820000000001 758.314 -32.6850000000001 791.466 -20.268C819.839 -9.302 845.566 7.466 867.071 28.927C888.5310000000001 50.431 905.301 76.159 916.266 104.532C928.6820000000002 137.6840000000001 935.3800000000002 172.7140000000001 936.0630000000002 208.0840000000001C938.1530000000002 253.61 938.623 268.1160000000001 938.623 383.999S938.153 514.431 936.0630000000002 559.914zM859.307 211.5840000000001C859.0070000000001 184.5320000000001 854.017 157.7380000000001 844.672 132.3510000000001C837.547 113.9190000000001 826.667 97.2360000000001 812.715 83.2840000000001C798.763 69.3320000000001 782.037 58.4520000000001 763.648 51.3700000000001C738.261 41.9840000000002 711.4680000000001 36.9920000000001 684.416 36.6930000000001C639.446 34.6450000000001 625.9630000000001 34.2190000000001 512 34.2190000000001S384.597 34.644 339.627 36.692C312.577 36.992 285.781 41.982 260.395 51.37C241.877 58.24 225.109 69.12 211.328 83.285C197.12 97.025 186.24 113.7919999999999 179.413 132.352C169.983 157.696 165.035 184.5319999999999 164.736 211.584C162.646 256.554 162.219 270.0369999999999 162.219 384C162.219 497.92 162.687 511.403 164.735 556.4159999999999C165.075 583.466 170.025 610.261 179.412 635.648C186.239 654.165 197.162 670.933 211.327 684.715C225.067 698.923 241.834 709.845 260.394 716.629C285.78 726.059 312.574 731.0070000000001 339.626 731.306C384.596 733.396 398.122 733.823 511.999 733.823C625.876 733.823 639.4019999999999 733.3530000000001 684.415 731.306C711.4649999999999 730.9639999999999 738.26 726.0160000000001 763.6469999999999 716.628C782.079 709.5450000000001 798.762 698.665 812.7139999999999 684.713C826.6659999999999 670.761 837.5459999999999 654.078 844.6709999999999 635.646C854.058 610.259 859.007 583.466 859.3059999999999 556.414C861.396 511.401 861.823 497.918 861.823 383.9980000000001C861.823 270.0350000000001 861.396 256.5950000000001 859.3059999999999 211.5820000000001zM739.797 662.9540000000001H739.755C726.187 662.9540000000001 713.173 657.5780000000001 703.573 647.9780000000001C693.973 638.378 688.597 625.3210000000001 688.597 611.753C688.597 598.1850000000001 693.973 585.171 703.573 575.571C713.173 565.971 726.187 560.595 739.755 560.595C753.365 560.595 766.379 565.971 775.979 575.571C785.5790000000001 585.171 790.9540000000001 598.185 790.9540000000001 611.753C790.9540000000001 625.321 785.5780000000001 638.3770000000001 775.9780000000001 647.9770000000001C766.378 657.577 753.363 662.952 739.7950000000001 662.952z" />
    <glyph glyph-name="instagram-2-1"
      unicode="&#x69;&#x6E;&#x73;&#x74;&#x61;&#x67;&#x72;&#x61;&#x6D;&#x5F;&#x32;"
      horiz-adv-x="1024" d="M512 603.0930000000001C468.693 603.0930000000001 426.325 590.251 390.272 566.143C354.262 542.08 326.187 507.861 309.589 467.84C292.991 427.8200000000001 288.682 383.7440000000001 297.129 341.2480000000001C305.579 298.7520000000001 326.442 259.712 357.076 229.0780000000001C387.711 198.4430000000001 426.7510000000001 177.5780000000001 469.246 169.1310000000001C511.7430000000001 160.6410000000001 555.818 164.9930000000001 595.839 181.5910000000001C635.859 198.1880000000001 670.0790000000001 226.2610000000001 694.186 262.2730000000002C718.25 298.3260000000002 731.092 340.6530000000002 731.092 384.0010000000002C731.092 412.7580000000002 725.418 441.2610000000002 714.41 467.8410000000001C703.403 494.4210000000001 687.275 518.5710000000001 666.923 538.9240000000001C646.571 559.2760000000001 622.421 575.4040000000001 595.84 586.412C569.26 597.422 540.8000000000001 603.095 512 603.095zM512 241.749C483.883 241.749 456.363 250.111 432.98 265.727C409.6 281.343 391.38 303.572 380.587 329.557C369.835 355.54 367.019 384.17 372.523 411.7320000000001C377.983 439.338 391.553 464.682 411.435 484.564C431.317 504.447 456.6609999999999 518.014 484.2669999999999 523.476C511.829 528.98 540.459 526.164 566.443 515.412C592.427 504.618 614.656 486.399 630.273 463.018C645.888 439.635 654.251 412.115 654.251 383.998C654.251 365.31 650.581 346.8349999999999 643.414 329.555C636.289 312.318 625.794 296.617 612.566 283.433C599.3820000000001 270.206 583.681 259.7100000000001 566.4440000000001 252.5850000000001C549.1640000000001 245.4170000000001 530.6890000000001 241.7470000000001 512.0010000000001 241.7470000000001zM936.064 559.914C935.381 595.2840000000001 928.684 630.3140000000001 916.267 663.4660000000001C905.557 691.9240000000001 888.7470000000001 717.738 867.072 739.0710000000001C845.739 760.7460000000001 819.968 777.556 791.509 788.2660000000001C758.356 800.682 723.327 807.3800000000001 687.956 808.0630000000001C642.431 810.153 627.8820000000001 810.666 512.042 810.666C396.1590000000001 810.666 381.61 810.196 336.0840000000001 808.0630000000001C300.7140000000001 807.3800000000001 265.6840000000001 800.6830000000001 232.5320000000001 788.2660000000001C204.0740000000001 777.556 178.2600000000001 760.7460000000001 156.927 739.0710000000001C135.21 717.738 118.442 691.9670000000001 107.732 663.4660000000001C95.316 630.3140000000001 88.618 595.2840000000001 87.935 559.914C85.802 514.431 85.332 499.8820000000001 85.332 383.999S85.802 253.6090000000001 87.935 208.0840000000001C88.618 172.7140000000001 95.315 137.6840000000001 107.732 104.532C118.442 76.032 135.21 50.26 156.927 28.927C178.26 7.2520000000001 204.074 -9.516 232.5320000000001 -20.268C265.6840000000001 -32.6840000000001 300.7140000000001 -39.3820000000001 336.0840000000001 -40.0650000000001C381.6100000000001 -42.1550000000001 396.1160000000001 -42.668 511.999 -42.668S642.431 -42.198 687.914 -40.0650000000001C723.284 -39.3820000000001 758.314 -32.6850000000001 791.466 -20.268C819.839 -9.302 845.566 7.466 867.071 28.927C888.5310000000001 50.431 905.301 76.159 916.266 104.532C928.6820000000002 137.6840000000001 935.3800000000002 172.7140000000001 936.0630000000002 208.0840000000001C938.1530000000002 253.61 938.623 268.1160000000001 938.623 383.999S938.153 514.431 936.0630000000002 559.914zM859.307 211.5840000000001C859.0070000000001 184.5320000000001 854.017 157.7380000000001 844.672 132.3510000000001C837.547 113.9190000000001 826.667 97.2360000000001 812.715 83.2840000000001C798.763 69.3320000000001 782.037 58.4520000000001 763.648 51.3700000000001C738.261 41.9840000000002 711.4680000000001 36.9920000000001 684.416 36.6930000000001C639.446 34.6450000000001 625.9630000000001 34.2190000000001 512 34.2190000000001S384.597 34.644 339.627 36.692C312.577 36.992 285.781 41.982 260.395 51.37C241.877 58.24 225.109 69.12 211.328 83.285C197.12 97.025 186.24 113.7919999999999 179.413 132.352C169.983 157.696 165.035 184.5319999999999 164.736 211.584C162.646 256.554 162.219 270.0369999999999 162.219 384C162.219 497.92 162.687 511.403 164.735 556.4159999999999C165.075 583.466 170.025 610.261 179.412 635.648C186.239 654.165 197.162 670.933 211.327 684.715C225.067 698.923 241.834 709.845 260.394 716.629C285.78 726.059 312.574 731.0070000000001 339.626 731.306C384.596 733.396 398.122 733.823 511.999 733.823C625.876 733.823 639.4019999999999 733.3530000000001 684.415 731.306C711.4649999999999 730.9639999999999 738.26 726.0160000000001 763.6469999999999 716.628C782.079 709.5450000000001 798.762 698.665 812.7139999999999 684.713C826.6659999999999 670.761 837.5459999999999 654.078 844.6709999999999 635.646C854.058 610.259 859.007 583.466 859.3059999999999 556.414C861.396 511.401 861.823 497.918 861.823 383.9980000000001C861.823 270.0350000000001 861.396 256.5950000000001 859.3059999999999 211.5820000000001zM739.797 662.9540000000001H739.755C726.187 662.9540000000001 713.173 657.5780000000001 703.573 647.9780000000001C693.973 638.378 688.597 625.3210000000001 688.597 611.753C688.597 598.1850000000001 693.973 585.171 703.573 575.571C713.173 565.971 726.187 560.595 739.755 560.595C753.365 560.595 766.379 565.971 775.979 575.571C785.5790000000001 585.171 790.9540000000001 598.185 790.9540000000001 611.753C790.9540000000001 625.321 785.5780000000001 638.3770000000001 775.9780000000001 647.9770000000001C766.378 657.577 753.363 662.952 739.7950000000001 662.952z" />
    <glyph glyph-name="youtube"
      unicode="&#xE00A;"
      horiz-adv-x="1024" d="M1010.236 438.904S1020.446 355.7200000000001 1020.446 272.564V194.5899999999999C1020.446 111.405 1010.236 28.28 1010.236 28.28S1000.296 -42.5260000000001 969.698 -73.7280000000001C930.876 -114.658 887.386 -114.868 867.448 -117.248C724.66 -127.668 510.223 -128 510.223 -128S244.9170000000001 -125.5599999999999 163.268 -117.6699999999999C140.558 -113.3929999999999 89.6 -114.658 50.748 -73.7279999999999C20.148 -42.526 10.21 28.28 10.21 28.28S0 111.435 0 194.59V272.5650000000001C0 355.7190000000001 10.21 438.9050000000001 10.21 438.9050000000001S20.15 509.7110000000001 50.748 540.913C89.6 581.8430000000001 133.03 582.0530000000001 152.998 584.403C295.815 594.8230000000001 509.982 594.8230000000001 509.982 594.8230000000001H510.464S724.6610000000001 594.8230000000001 867.448 584.4330000000001C887.386 582.0530000000001 930.876 581.8430000000001 969.698 540.9130000000001C1000.268 509.7110000000001 1010.236 438.9030000000002 1010.236 438.9030000000002zM404.87 100.11L680.57 243.9840000000001L404.81 388.85z" />
    <glyph glyph-name="youtube-1"
      unicode="&#x79;&#x6F;&#x75;&#x74;&#x75;&#x62;&#x65;"
      horiz-adv-x="1024" d="M1010.236 438.904S1020.446 355.7200000000001 1020.446 272.564V194.5899999999999C1020.446 111.405 1010.236 28.28 1010.236 28.28S1000.296 -42.5260000000001 969.698 -73.7280000000001C930.876 -114.658 887.386 -114.868 867.448 -117.248C724.66 -127.668 510.223 -128 510.223 -128S244.9170000000001 -125.5599999999999 163.268 -117.6699999999999C140.558 -113.3929999999999 89.6 -114.658 50.748 -73.7279999999999C20.148 -42.526 10.21 28.28 10.21 28.28S0 111.435 0 194.59V272.5650000000001C0 355.7190000000001 10.21 438.9050000000001 10.21 438.9050000000001S20.15 509.7110000000001 50.748 540.913C89.6 581.8430000000001 133.03 582.0530000000001 152.998 584.403C295.815 594.8230000000001 509.982 594.8230000000001 509.982 594.8230000000001H510.464S724.6610000000001 594.8230000000001 867.448 584.4330000000001C887.386 582.0530000000001 930.876 581.8430000000001 969.698 540.9130000000001C1000.268 509.7110000000001 1010.236 438.9030000000002 1010.236 438.9030000000002zM404.87 100.11L680.57 243.9840000000001L404.81 388.85z" />
    <glyph glyph-name="fill-close-circle"
      unicode="&#xE00B;"
      horiz-adv-x="1024" d="M512 810.667C276.907 810.667 85.333 619.0930000000001 85.333 384C85.333 148.9070000000001 276.9070000000001 -42.6669999999999 512 -42.6669999999999C747.093 -42.6669999999999 938.667 148.9070000000002 938.667 384.0000000000001C938.667 619.0930000000001 747.0929999999998 810.667 511.9999999999999 810.667zM655.36 285.8670000000001C667.7330000000001 273.4930000000001 667.7330000000001 253.0130000000001 655.36 240.6400000000001C648.96 234.2400000000001 640.8530000000001 231.2530000000002 632.7470000000001 231.2530000000002C624.6400000000001 231.2530000000002 616.5330000000001 234.2400000000001 610.133 240.6400000000001L512 338.773L413.867 240.64C407.4670000000001 234.24 399.36 231.253 391.2530000000001 231.253C383.1470000000001 231.253 375.04 234.2399999999999 368.6400000000001 240.6399999999999C356.2670000000001 253.0129999999999 356.2670000000001 273.4929999999998 368.6400000000001 285.8669999999999L466.773 384L368.6400000000001 482.133C356.2670000000001 494.507 356.2670000000001 514.987 368.6400000000001 527.3599999999999C381.0130000000001 539.733 401.4930000000001 539.733 413.867 527.3599999999999L512 429.227L610.133 527.3599999999999C622.5070000000001 539.733 642.9870000000001 539.733 655.36 527.3599999999999C667.7330000000001 514.987 667.7330000000001 494.5069999999999 655.36 482.133L557.227 384L655.36 285.867z" />
    <glyph glyph-name="fill-close-circle-1"
      unicode="&#x66;&#x69;&#x6C;&#x6C;&#x5F;&#x63;&#x6C;&#x6F;&#x73;&#x65;&#x5F;&#x63;&#x69;&#x72;&#x63;&#x6C;&#x65;"
      horiz-adv-x="1024" d="M512 810.667C276.907 810.667 85.333 619.0930000000001 85.333 384C85.333 148.9070000000001 276.9070000000001 -42.6669999999999 512 -42.6669999999999C747.093 -42.6669999999999 938.667 148.9070000000002 938.667 384.0000000000001C938.667 619.0930000000001 747.0929999999998 810.667 511.9999999999999 810.667zM655.36 285.8670000000001C667.7330000000001 273.4930000000001 667.7330000000001 253.0130000000001 655.36 240.6400000000001C648.96 234.2400000000001 640.8530000000001 231.2530000000002 632.7470000000001 231.2530000000002C624.6400000000001 231.2530000000002 616.5330000000001 234.2400000000001 610.133 240.6400000000001L512 338.773L413.867 240.64C407.4670000000001 234.24 399.36 231.253 391.2530000000001 231.253C383.1470000000001 231.253 375.04 234.2399999999999 368.6400000000001 240.6399999999999C356.2670000000001 253.0129999999999 356.2670000000001 273.4929999999998 368.6400000000001 285.8669999999999L466.773 384L368.6400000000001 482.133C356.2670000000001 494.507 356.2670000000001 514.987 368.6400000000001 527.3599999999999C381.0130000000001 539.733 401.4930000000001 539.733 413.867 527.3599999999999L512 429.227L610.133 527.3599999999999C622.5070000000001 539.733 642.9870000000001 539.733 655.36 527.3599999999999C667.7330000000001 514.987 667.7330000000001 494.5069999999999 655.36 482.133L557.227 384L655.36 285.867z" />
    <glyph glyph-name="line-close-circle"
      unicode="&#xE00C;"
      horiz-adv-x="1024" d="M938.667 384Q938.667 208 813.355 82.645Q688 -42.667 512 -42.667T210.645 82.645Q85.333 208 85.333 384T210.645 685.355Q336 810.667 512 810.667T813.355 685.355Q938.667 560 938.667 384zM874.667 384Q874.667 533.504 768.085 640.085Q661.505 746.667 512 746.667Q362.496 746.667 255.915 640.085Q149.333 533.505 149.333 384Q149.333 234.496 255.915 127.915Q362.495 21.333 512 21.333Q661.504 21.333 768.085 127.915Q874.667 234.495 874.667 384zM368.64 285.867L610.133 527.36Q619.4770000000001 536.7470000000001 632.7470000000001 536.7470000000001Q646.017 536.7470000000001 655.3600000000001 527.36Q664.7470000000001 518.0160000000001 664.7470000000001 504.747Q664.7470000000001 491.477 655.3600000000001 482.133L413.867 240.64Q404.523 231.253 391.2530000000001 231.253Q377.9830000000001 231.253 368.6400000000001 240.6399999999999Q359.2530000000001 249.9839999999999 359.2530000000001 263.253Q359.2530000000001 276.5229999999999 368.6400000000001 285.867zM610.133 240.64L368.64 482.133Q359.253 491.477 359.253 504.747Q359.253 518.0169999999999 368.64 527.3599999999999Q377.984 536.747 391.253 536.747Q404.523 536.747 413.867 527.3599999999999L655.36 285.867Q664.7470000000001 276.5229999999999 664.7470000000001 263.253Q664.7470000000001 249.983 655.3600000000001 240.6399999999999Q646.0160000000001 231.253 632.7470000000001 231.253Q619.4770000000001 231.253 610.133 240.6399999999999z" />
    <glyph glyph-name="line-close-circle-1"
      unicode="&#x6C;&#x69;&#x6E;&#x65;&#x5F;&#x63;&#x6C;&#x6F;&#x73;&#x65;&#x5F;&#x63;&#x69;&#x72;&#x63;&#x6C;&#x65;"
      horiz-adv-x="1024" d="M938.667 384Q938.667 208 813.355 82.645Q688 -42.667 512 -42.667T210.645 82.645Q85.333 208 85.333 384T210.645 685.355Q336 810.667 512 810.667T813.355 685.355Q938.667 560 938.667 384zM874.667 384Q874.667 533.504 768.085 640.085Q661.505 746.667 512 746.667Q362.496 746.667 255.915 640.085Q149.333 533.505 149.333 384Q149.333 234.496 255.915 127.915Q362.495 21.333 512 21.333Q661.504 21.333 768.085 127.915Q874.667 234.495 874.667 384zM368.64 285.867L610.133 527.36Q619.4770000000001 536.7470000000001 632.7470000000001 536.7470000000001Q646.017 536.7470000000001 655.3600000000001 527.36Q664.7470000000001 518.0160000000001 664.7470000000001 504.747Q664.7470000000001 491.477 655.3600000000001 482.133L413.867 240.64Q404.523 231.253 391.2530000000001 231.253Q377.9830000000001 231.253 368.6400000000001 240.6399999999999Q359.2530000000001 249.9839999999999 359.2530000000001 263.253Q359.2530000000001 276.5229999999999 368.6400000000001 285.867zM610.133 240.64L368.64 482.133Q359.253 491.477 359.253 504.747Q359.253 518.0169999999999 368.64 527.3599999999999Q377.984 536.747 391.253 536.747Q404.523 536.747 413.867 527.3599999999999L655.36 285.867Q664.7470000000001 276.5229999999999 664.7470000000001 263.253Q664.7470000000001 249.983 655.3600000000001 240.6399999999999Q646.0160000000001 231.253 632.7470000000001 231.253Q619.4770000000001 231.253 610.133 240.6399999999999z" />
    <glyph glyph-name="vertical"
      unicode="&#xE00D;"
      horiz-adv-x="1024" d="M849.067 320H174.933C110.933 320 85.333 292.693 85.333 224.853V52.48C85.333 -15.36 110.933 -42.667 174.933 -42.667H849.067C913.067 -42.667 938.667 -15.36 938.667 52.48V224.853C938.667 292.693 913.067 320 849.067 320zM849.067 810.6669999999999H174.933C110.933 810.6669999999999 85.333 783.36 85.333 715.52V543.1469999999999C85.333 475.307 110.933 448 174.933 448H849.067C913.067 448 938.667 475.307 938.667 543.1469999999999V715.52C938.667 783.36 913.067 810.667 849.067 810.667z" />
    <glyph glyph-name="vertical-1"
      unicode="&#x76;&#x65;&#x72;&#x74;&#x69;&#x63;&#x61;&#x6C;"
      horiz-adv-x="1024" d="M849.067 320H174.933C110.933 320 85.333 292.693 85.333 224.853V52.48C85.333 -15.36 110.933 -42.667 174.933 -42.667H849.067C913.067 -42.667 938.667 -15.36 938.667 52.48V224.853C938.667 292.693 913.067 320 849.067 320zM849.067 810.6669999999999H174.933C110.933 810.6669999999999 85.333 783.36 85.333 715.52V543.1469999999999C85.333 475.307 110.933 448 174.933 448H849.067C913.067 448 938.667 475.307 938.667 543.1469999999999V715.52C938.667 783.36 913.067 810.667 849.067 810.667z" />
    <glyph glyph-name="horizontal"
      unicode="&#xE00E;"
      horiz-adv-x="1024" d="M938.667 532.48V726.187C938.667 786.347 911.36 810.667 843.52 810.667H671.147C603.307 810.667 576 786.347 576 726.187V532.907C576 472.3200000000001 603.307 448.427 671.147 448.427H843.52C911.36 448 938.667 472.3200000000001 938.667 532.48zM938.667 52.48V224.853C938.667 292.693 911.36 320 843.52 320H671.147C603.307 320 576 292.693 576 224.853V52.48C576 -15.36 603.307 -42.667 671.147 -42.667H843.52C911.36 -42.667 938.667 -15.36 938.667 52.48zM448 532.48V726.187C448 786.347 420.693 810.667 352.853 810.667H180.48C112.64 810.667 85.333 786.347 85.333 726.187V532.907C85.333 472.3200000000001 112.64 448.427 180.48 448.427H352.853C420.693 448 448 472.32 448 532.48zM448 52.48V224.853C448 292.693 420.693 320 352.853 320H180.48C112.64 320 85.333 292.693 85.333 224.853V52.48C85.333 -15.36 112.64 -42.667 180.48 -42.667H352.853C420.693 -42.667 448 -15.36 448 52.48z" />
    <glyph glyph-name="horizontal-1"
      unicode="&#x68;&#x6F;&#x72;&#x69;&#x7A;&#x6F;&#x6E;&#x74;&#x61;&#x6C;"
      horiz-adv-x="1024" d="M938.667 532.48V726.187C938.667 786.347 911.36 810.667 843.52 810.667H671.147C603.307 810.667 576 786.347 576 726.187V532.907C576 472.3200000000001 603.307 448.427 671.147 448.427H843.52C911.36 448 938.667 472.3200000000001 938.667 532.48zM938.667 52.48V224.853C938.667 292.693 911.36 320 843.52 320H671.147C603.307 320 576 292.693 576 224.853V52.48C576 -15.36 603.307 -42.667 671.147 -42.667H843.52C911.36 -42.667 938.667 -15.36 938.667 52.48zM448 532.48V726.187C448 786.347 420.693 810.667 352.853 810.667H180.48C112.64 810.667 85.333 786.347 85.333 726.187V532.907C85.333 472.3200000000001 112.64 448.427 180.48 448.427H352.853C420.693 448 448 472.32 448 532.48zM448 52.48V224.853C448 292.693 420.693 320 352.853 320H180.48C112.64 320 85.333 292.693 85.333 224.853V52.48C85.333 -15.36 112.64 -42.667 180.48 -42.667H352.853C420.693 -42.667 448 -15.36 448 52.48z" />
    <glyph glyph-name="info"
      unicode="&#xE00F;"
      horiz-adv-x="1024" d="M554.688 512H469.312V597.312H554.688M554.688 170.624H469.312V426.688H554.688M512 810.688C456 810.688 400.512 799.616 348.736 778.176C296.96 756.736 249.92 725.312 210.304 685.696C130.304 605.696 85.312 497.152 85.312 384C85.312 270.848 130.304 162.304 210.304 82.304C249.92 42.688 296.9600000000001 11.264 348.736 -10.176C400.512 -31.616 456 -42.688 512 -42.688C625.152 -42.688 733.696 2.304 813.696 82.304C893.696 162.304 938.688 270.848 938.688 384C938.688 440 927.616 495.488 906.176 547.264C884.7359999999999 599.04 853.3119999999999 646.08 813.6959999999999 685.696C774.0799999999999 725.312 727.04 756.736 675.2639999999999 778.176C623.5519999999999 799.616 568.0639999999999 810.688 511.9999999999999 810.688z" />
    <glyph glyph-name="info-1"
      unicode="&#x69;&#x6E;&#x66;&#x6F;"
      horiz-adv-x="1024" d="M554.688 512H469.312V597.312H554.688M554.688 170.624H469.312V426.688H554.688M512 810.688C456 810.688 400.512 799.616 348.736 778.176C296.96 756.736 249.92 725.312 210.304 685.696C130.304 605.696 85.312 497.152 85.312 384C85.312 270.848 130.304 162.304 210.304 82.304C249.92 42.688 296.9600000000001 11.264 348.736 -10.176C400.512 -31.616 456 -42.688 512 -42.688C625.152 -42.688 733.696 2.304 813.696 82.304C893.696 162.304 938.688 270.848 938.688 384C938.688 440 927.616 495.488 906.176 547.264C884.7359999999999 599.04 853.3119999999999 646.08 813.6959999999999 685.696C774.0799999999999 725.312 727.04 756.736 675.2639999999999 778.176C623.5519999999999 799.616 568.0639999999999 810.688 511.9999999999999 810.688z" />
    <glyph glyph-name="minus-circle"
      unicode="&#xE010;"
      horiz-adv-x="1024" d="M508.608 -90.688Q312.704 -90.688 173.312 48.704T33.92 384Q33.92 579.84 173.312 719.232Q312.704 858.624 508.608 858.688Q704.448 858.688 843.84 719.232Q983.232 579.8399999999999 983.232 384Q983.232 188.096 843.8399999999999 48.704T508.608 -90.688zM508.608 5.312Q664.704 5.312 776 116.6080000000001Q887.232 227.904 887.232 384T776 651.392Q664.704 762.688 508.608 762.688Q352.448 762.688 241.216 651.392Q129.92 540.096 129.92 384T241.216 116.608Q352.448 5.3119999999999 508.608 5.3119999999999zM337.92 432H679.232Q699.136 432 713.216 417.92Q727.232 403.904 727.232 384Q727.232 364.096 713.216 350.0800000000001Q699.136 336 679.232 336H337.92Q318.016 336 304 350.0800000000001Q289.92 364.096 289.92 384.0000000000001Q289.92 403.9040000000001 304 417.9200000000001Q318.016 432 337.92 432z" />
    <glyph glyph-name="minus-circle-1"
      unicode="&#x6D;&#x69;&#x6E;&#x75;&#x73;&#x5F;&#x63;&#x69;&#x72;&#x63;&#x6C;&#x65;"
      horiz-adv-x="1024" d="M508.608 -90.688Q312.704 -90.688 173.312 48.704T33.92 384Q33.92 579.84 173.312 719.232Q312.704 858.624 508.608 858.688Q704.448 858.688 843.84 719.232Q983.232 579.8399999999999 983.232 384Q983.232 188.096 843.8399999999999 48.704T508.608 -90.688zM508.608 5.312Q664.704 5.312 776 116.6080000000001Q887.232 227.904 887.232 384T776 651.392Q664.704 762.688 508.608 762.688Q352.448 762.688 241.216 651.392Q129.92 540.096 129.92 384T241.216 116.608Q352.448 5.3119999999999 508.608 5.3119999999999zM337.92 432H679.232Q699.136 432 713.216 417.92Q727.232 403.904 727.232 384Q727.232 364.096 713.216 350.0800000000001Q699.136 336 679.232 336H337.92Q318.016 336 304 350.0800000000001Q289.92 364.096 289.92 384.0000000000001Q289.92 403.9040000000001 304 417.9200000000001Q318.016 432 337.92 432z" />
    <glyph glyph-name="add-circle"
      unicode="&#xE011;"
      horiz-adv-x="1024" d="M512 -90.688Q316.096 -90.688 176.704 48.704T37.312 384Q37.312 579.84 176.704 719.232Q316.096 858.624 512 858.688Q707.904 858.688 847.296 719.232Q986.688 579.8399999999999 986.688 384Q986.688 188.096 847.296 48.704T512 -90.688zM512 5.312Q668.096 5.312 779.392 116.6080000000001Q890.688 227.904 890.688 384T779.392 651.392Q668.096 762.688 512 762.688T244.608 651.392Q133.312 540.096 133.312 384T244.608 116.608Q355.904 5.312 512 5.312zM341.312 432H682.688Q702.528 432 716.608 417.92Q730.688 403.904 730.688 384Q730.688 364.096 716.608 350.0800000000001Q702.5279999999999 336 682.688 336H341.312Q321.4720000000001 336 307.392 350.0800000000001Q293.312 364.096 293.312 384.0000000000001Q293.312 403.9040000000001 307.392 417.9200000000001Q321.472 432.0000000000001 341.312 432.0000000000001zM464 213.312V554.688Q464 574.528 478.08 588.608Q492.096 602.688 512 602.688Q531.904 602.688 545.92 588.608Q560 574.528 560 554.688V213.312Q560 193.472 545.92 179.3920000000001Q531.904 165.312 511.9999999999999 165.312Q492.0959999999999 165.312 478.0799999999999 179.3920000000001Q463.9999999999999 193.4720000000001 463.9999999999999 213.312z" />
    <glyph glyph-name="add-circle-1"
      unicode="&#x61;&#x64;&#x64;&#x5F;&#x63;&#x69;&#x72;&#x63;&#x6C;&#x65;"
      horiz-adv-x="1024" d="M512 -90.688Q316.096 -90.688 176.704 48.704T37.312 384Q37.312 579.84 176.704 719.232Q316.096 858.624 512 858.688Q707.904 858.688 847.296 719.232Q986.688 579.8399999999999 986.688 384Q986.688 188.096 847.296 48.704T512 -90.688zM512 5.312Q668.096 5.312 779.392 116.6080000000001Q890.688 227.904 890.688 384T779.392 651.392Q668.096 762.688 512 762.688T244.608 651.392Q133.312 540.096 133.312 384T244.608 116.608Q355.904 5.312 512 5.312zM341.312 432H682.688Q702.528 432 716.608 417.92Q730.688 403.904 730.688 384Q730.688 364.096 716.608 350.0800000000001Q702.5279999999999 336 682.688 336H341.312Q321.4720000000001 336 307.392 350.0800000000001Q293.312 364.096 293.312 384.0000000000001Q293.312 403.9040000000001 307.392 417.9200000000001Q321.472 432.0000000000001 341.312 432.0000000000001zM464 213.312V554.688Q464 574.528 478.08 588.608Q492.096 602.688 512 602.688Q531.904 602.688 545.92 588.608Q560 574.528 560 554.688V213.312Q560 193.472 545.92 179.3920000000001Q531.904 165.312 511.9999999999999 165.312Q492.0959999999999 165.312 478.0799999999999 179.3920000000001Q463.9999999999999 193.4720000000001 463.9999999999999 213.312z" />
    <glyph glyph-name="trash"
      unicode="&#xE012;"
      horiz-adv-x="1024" d="M891.008 589.952Q678.144 610.944 468.48 610.944Q344.3200000000001 610.944 220.16 598.4000000000001L132.992 589.952Q111.872 587.7760000000001 95.488 601.344Q79.104 614.7840000000001 77.056 635.904Q75.008 657.0240000000001 88.448 673.408Q101.888 689.792 123.008 691.84L209.92 700.288Q339.2000000000001 713.344 468.48 713.344Q683.264 713.344 900.992 691.84Q922.112 689.6640000000001 935.552 673.2800000000001Q948.992 656.8960000000001 946.944 635.7760000000001Q944.896 614.6560000000001 928.512 601.2160000000001Q912 587.7760000000001 891.0079999999999 589.952zM312.192 692.48L321.536 748.288Q340.736 861.824 456.064 861.824H567.9359999999999Q683.9039999999999 861.824 702.4639999999999 747.6479999999999L711.808 692.48Q715.3919999999999 671.616 703.104 654.336Q690.816 637.0559999999999 669.8240000000001 633.472Q648.96 629.8879999999999 631.6800000000001 642.1759999999999Q614.4000000000001 654.4639999999999 610.816 675.456L601.344 731.136Q596.7360000000001 759.424 567.936 759.424H456.064Q427.264 759.424 422.528 731.392L413.1840000000001 675.456Q409.6 654.592 392.3200000000001 642.304T354.1760000000001 633.472Q333.3120000000001 636.928 320.8960000000001 654.208Q308.6080000000001 671.4879999999999 312.1920000000001 692.48zM855.296 502.6559999999999L827.648 73.088Q815.8720000000001 -93.952 648.96 -93.952H375.04Q208 -93.952 196.352 72.832L168.576 502.656Q167.296 523.904 181.248 539.7760000000001Q195.2 555.7760000000001 216.448 557.056Q237.5680000000001 558.464 253.5680000000001 544.5120000000001Q269.4400000000001 530.432 270.8480000000001 509.3120000000001L298.4960000000001 79.8720000000001Q303.4880000000001 8.4480000000001 375.0400000000001 8.4480000000001H648.96Q720.384 8.4480000000001 725.376 79.6160000000001L753.1519999999999 509.3120000000001Q754.56 530.4320000000001 770.4319999999999 544.5120000000002Q786.4319999999999 558.4640000000002 807.5519999999999 557.056Q828.6719999999999 555.7760000000001 842.752 539.7760000000001Q856.704 523.904 855.2959999999999 502.6560000000001zM440.704 243.2000000000001H582.784Q604.032 243.2000000000001 619.008 228.2240000000001Q633.984 213.2480000000001 633.984 192Q633.984 170.752 619.008 155.776Q604.032 140.8 582.784 140.8H440.704Q419.584 140.8 404.608 155.776Q389.504 170.752 389.504 192Q389.504 213.2480000000001 404.608 228.2240000000001Q419.584 243.2000000000001 440.704 243.2000000000001zM405.376 413.9520000000001H618.624Q639.8720000000001 413.9520000000001 654.8480000000001 398.8480000000001Q669.8240000000001 383.8720000000001 669.8240000000001 362.624Q669.8240000000001 341.504 654.8480000000001 326.528Q639.8720000000001 311.424 618.624 311.424H405.376Q384.128 311.424 369.152 326.528Q354.176 341.504 354.176 362.624Q354.176 383.8720000000001 369.152 398.848Q384.128 413.952 405.376 413.952z" />
    <glyph glyph-name="trash-1"
      unicode="&#x74;&#x72;&#x61;&#x73;&#x68;"
      horiz-adv-x="1024" d="M891.008 589.952Q678.144 610.944 468.48 610.944Q344.3200000000001 610.944 220.16 598.4000000000001L132.992 589.952Q111.872 587.7760000000001 95.488 601.344Q79.104 614.7840000000001 77.056 635.904Q75.008 657.0240000000001 88.448 673.408Q101.888 689.792 123.008 691.84L209.92 700.288Q339.2000000000001 713.344 468.48 713.344Q683.264 713.344 900.992 691.84Q922.112 689.6640000000001 935.552 673.2800000000001Q948.992 656.8960000000001 946.944 635.7760000000001Q944.896 614.6560000000001 928.512 601.2160000000001Q912 587.7760000000001 891.0079999999999 589.952zM312.192 692.48L321.536 748.288Q340.736 861.824 456.064 861.824H567.9359999999999Q683.9039999999999 861.824 702.4639999999999 747.6479999999999L711.808 692.48Q715.3919999999999 671.616 703.104 654.336Q690.816 637.0559999999999 669.8240000000001 633.472Q648.96 629.8879999999999 631.6800000000001 642.1759999999999Q614.4000000000001 654.4639999999999 610.816 675.456L601.344 731.136Q596.7360000000001 759.424 567.936 759.424H456.064Q427.264 759.424 422.528 731.392L413.1840000000001 675.456Q409.6 654.592 392.3200000000001 642.304T354.1760000000001 633.472Q333.3120000000001 636.928 320.8960000000001 654.208Q308.6080000000001 671.4879999999999 312.1920000000001 692.48zM855.296 502.6559999999999L827.648 73.088Q815.8720000000001 -93.952 648.96 -93.952H375.04Q208 -93.952 196.352 72.832L168.576 502.656Q167.296 523.904 181.248 539.7760000000001Q195.2 555.7760000000001 216.448 557.056Q237.5680000000001 558.464 253.5680000000001 544.5120000000001Q269.4400000000001 530.432 270.8480000000001 509.3120000000001L298.4960000000001 79.8720000000001Q303.4880000000001 8.4480000000001 375.0400000000001 8.4480000000001H648.96Q720.384 8.4480000000001 725.376 79.6160000000001L753.1519999999999 509.3120000000001Q754.56 530.4320000000001 770.4319999999999 544.5120000000002Q786.4319999999999 558.4640000000002 807.5519999999999 557.056Q828.6719999999999 555.7760000000001 842.752 539.7760000000001Q856.704 523.904 855.2959999999999 502.6560000000001zM440.704 243.2000000000001H582.784Q604.032 243.2000000000001 619.008 228.2240000000001Q633.984 213.2480000000001 633.984 192Q633.984 170.752 619.008 155.776Q604.032 140.8 582.784 140.8H440.704Q419.584 140.8 404.608 155.776Q389.504 170.752 389.504 192Q389.504 213.2480000000001 404.608 228.2240000000001Q419.584 243.2000000000001 440.704 243.2000000000001zM405.376 413.9520000000001H618.624Q639.8720000000001 413.9520000000001 654.8480000000001 398.8480000000001Q669.8240000000001 383.8720000000001 669.8240000000001 362.624Q669.8240000000001 341.504 654.8480000000001 326.528Q639.8720000000001 311.424 618.624 311.424H405.376Q384.128 311.424 369.152 326.528Q354.176 341.504 354.176 362.624Q354.176 383.8720000000001 369.152 398.848Q384.128 413.952 405.376 413.952z" />
    <glyph glyph-name="checkmark"
      unicode="&#xE013;"
      horiz-adv-x="1023.9987000016505" d="M99.8398732501609 267.520797873987L306.6236107317443 33.0890954923591L931.1348178952508 640.0003249995874L1023.9987000016504 546.4324437869366L349.3755564568131 -109.1827238891201C322.1755909880193 -135.6786902516628 278.0796469691982 -133.9506924454101 252.9916788191578 -105.5347285203642L0 181.3129073175981z" />
    <glyph glyph-name="checkmark-1"
      unicode="&#x63;&#x68;&#x65;&#x63;&#x6B;&#x6D;&#x61;&#x72;&#x6B;"
      horiz-adv-x="1023.9987000016505" d="M99.8398732501609 267.520797873987L306.6236107317443 33.0890954923591L931.1348178952508 640.0003249995874L1023.9987000016504 546.4324437869366L349.3755564568131 -109.1827238891201C322.1755909880193 -135.6786902516628 278.0796469691982 -133.9506924454101 252.9916788191578 -105.5347285203642L0 181.3129073175981z" />
    <glyph glyph-name="undo"
      unicode="&#xE014;"
      horiz-adv-x="1024" d="M304.192 162.752H645.568Q713.9839999999999 162.752 762.432 211.1999999999999Q810.88 259.6479999999999 810.88 328.128Q810.88 493.4399999999999 645.568 493.4399999999999H176.192Q156.352 493.4399999999999 142.272 507.5199999999999Q128.192 521.536 128.192 541.4399999999999Q128.192 561.3439999999999 142.272 575.3599999999999Q156.352 589.4399999999999 176.192 589.4399999999999H645.568Q906.88 589.4399999999999 906.88 328.128Q906.88 66.752 645.568 66.752H304.192Q284.3520000000001 66.752 270.272 80.832Q256.192 94.912 256.192 114.752Q256.192 134.656 270.272 148.736Q284.352 162.752 304.192 162.752zM240.384 400.832L131.2 510.08Q117.12 524.096 117.12 544Q117.12 563.904 131.2 577.9200000000001L240.384 687.168Q254.464 701.248 274.368 701.248Q294.208 701.248 308.288 687.168Q322.368 673.088 322.368 653.248Q322.368 633.344 308.288 619.264L233.024 544L308.288 468.736Q322.368 454.656 322.368 434.752Q322.368 414.9120000000001 308.288 400.832Q294.2080000000001 386.752 274.368 386.752Q254.464 386.752 240.384 400.832z" />
    <glyph glyph-name="undo-1"
      unicode="&#x75;&#x6E;&#x64;&#x6F;"
      horiz-adv-x="1024" d="M304.192 162.752H645.568Q713.9839999999999 162.752 762.432 211.1999999999999Q810.88 259.6479999999999 810.88 328.128Q810.88 493.4399999999999 645.568 493.4399999999999H176.192Q156.352 493.4399999999999 142.272 507.5199999999999Q128.192 521.536 128.192 541.4399999999999Q128.192 561.3439999999999 142.272 575.3599999999999Q156.352 589.4399999999999 176.192 589.4399999999999H645.568Q906.88 589.4399999999999 906.88 328.128Q906.88 66.752 645.568 66.752H304.192Q284.3520000000001 66.752 270.272 80.832Q256.192 94.912 256.192 114.752Q256.192 134.656 270.272 148.736Q284.352 162.752 304.192 162.752zM240.384 400.832L131.2 510.08Q117.12 524.096 117.12 544Q117.12 563.904 131.2 577.9200000000001L240.384 687.168Q254.464 701.248 274.368 701.248Q294.208 701.248 308.288 687.168Q322.368 673.088 322.368 653.248Q322.368 633.344 308.288 619.264L233.024 544L308.288 468.736Q322.368 454.656 322.368 434.752Q322.368 414.9120000000001 308.288 400.832Q294.2080000000001 386.752 274.368 386.752Q254.464 386.752 240.384 400.832z" />
    <glyph glyph-name="arrow-left"
      unicode="&#xE015;"
      horiz-adv-x="1024" d="M660.838 706.97C674.2529999999999 695.45 675.788 675.277 664.2679999999999 661.862L426.14 384L664.27 106.1900000000001C675.79 92.7230000000001 674.255 72.5500000000001 660.84 61.0300000000001C647.426 49.5620000000001 627.202 51.0980000000001 615.7330000000001 64.5120000000001L359.6830000000001 363.1620000000001C349.4430000000001 375.1940000000001 349.4430000000001 392.8580000000001 359.6830000000001 404.838L615.7330000000001 703.488C627.2030000000001 716.902 647.427 718.49 660.841 706.97z" />
    <glyph glyph-name="arrow-left-1"
      unicode="&#x61;&#x72;&#x72;&#x6F;&#x77;&#x5F;&#x6C;&#x65;&#x66;&#x74;"
      horiz-adv-x="1024" d="M660.838 706.97C674.2529999999999 695.45 675.788 675.277 664.2679999999999 661.862L426.14 384L664.27 106.1900000000001C675.79 92.7230000000001 674.255 72.5500000000001 660.84 61.0300000000001C647.426 49.5620000000001 627.202 51.0980000000001 615.7330000000001 64.5120000000001L359.6830000000001 363.1620000000001C349.4430000000001 375.1940000000001 349.4430000000001 392.8580000000001 359.6830000000001 404.838L615.7330000000001 703.488C627.2030000000001 716.902 647.427 718.49 660.841 706.97z" />
    <glyph glyph-name="arrow-right"
      unicode="&#xE016;"
      horiz-adv-x="1024" d="M363.162 706.97C376.576 718.49 396.8 716.902 408.32 703.488L664.27 404.838C674.56 392.858 674.56 375.1940000000001 664.27 363.1620000000001L408.32 64.5120000000001C396.8 51.0980000000001 376.576 49.562 363.162 61.0300000000001C349.747 72.5500000000001 348.212 92.7230000000001 359.68 106.1900000000001L597.862 384L359.68 661.862C348.21 675.277 349.747 695.45 363.1620000000001 706.97z" />
    <glyph glyph-name="arrow-right-1"
      unicode="&#x61;&#x72;&#x72;&#x6F;&#x77;&#x5F;&#x72;&#x69;&#x67;&#x68;&#x74;"
      horiz-adv-x="1024" d="M363.162 706.97C376.576 718.49 396.8 716.902 408.32 703.488L664.27 404.838C674.56 392.858 674.56 375.1940000000001 664.27 363.1620000000001L408.32 64.5120000000001C396.8 51.0980000000001 376.576 49.562 363.162 61.0300000000001C349.747 72.5500000000001 348.212 92.7230000000001 359.68 106.1900000000001L597.862 384L359.68 661.862C348.21 675.277 349.747 695.45 363.1620000000001 706.97z" />
    <glyph glyph-name="phone"
      unicode="&#xE017;"
      horiz-adv-x="1024" d="M751.808 437.312C733.4399999999999 437.312 718.912 452.288 718.912 470.208C718.912 485.952 703.168 518.848 676.672 547.392C650.688 575.1680000000001 622.08 591.3600000000001 598.2080000000001 591.3600000000001C579.84 591.3600000000001 565.3760000000001 606.272 565.3760000000001 624.192S580.2880000000001 657.0880000000001 598.2080000000001 657.0880000000001C640.8960000000001 657.0880000000001 685.6320000000001 634.048 724.9280000000001 592.6400000000001C761.6000000000001 553.7920000000001 785.0880000000001 505.6000000000001 785.0880000000001 470.5920000000001C785.0880000000001 452.2880000000001 770.176 437.3120000000002 751.8080000000001 437.3120000000002zM905.792 437.3760000000001C887.488 437.3760000000001 872.96 452.288 872.96 470.208C872.96 621.696 749.6320000000001 744.576 598.5920000000001 744.576C580.2880000000001 744.576 565.7600000000001 759.488 565.7600000000001 777.408S580.2880000000001 810.688 598.2080000000001 810.688C785.9200000000001 810.688 938.624 657.9200000000001 938.624 470.208C938.624 452.288 923.712 437.376 905.792 437.376zM471.4880000000001 258.1760000000001L392.512 179.2000000000001C375.872 162.5600000000001 349.44 162.5600000000001 332.416 178.816C327.68 183.4880000000001 323.008 187.7760000000001 318.272 192.448C274.368 236.8 234.688 283.328 199.296 331.968C164.288 380.608 136.128 429.248 115.648 477.4399999999999C95.616 526.0799999999999 85.312 572.608 85.312 616.9599999999999C85.312 646.016 90.432 673.728 100.672 699.328C110.976 725.376 127.168 749.2479999999999 149.76 770.56C177.088 797.4399999999999 206.912 810.6879999999999 238.528 810.6879999999999C250.432 810.6879999999999 262.4 808.1279999999999 273.088 803.0079999999999C284.16 797.8879999999999 293.952 790.208 301.632 779.136L400.64 639.616C408.32 628.9279999999999 413.8879999999999 619.136 417.728 609.728C421.568 600.768 423.68 591.808 423.68 583.68C423.68 573.4399999999999 420.736 563.1999999999999 414.72 553.4079999999999C409.216 543.616 401.088 533.376 390.848 523.136L358.4 489.408C353.728 484.736 351.616 479.168 351.616 472.32C351.616 468.928 352 465.92 352.832 462.528C354.176 459.136 355.392 456.576 356.288 454.016C363.968 439.9360000000001 377.216 421.5680000000001 395.968 399.36C415.168 377.216 435.648 354.5600000000001 457.856 331.9680000000001C462.08 327.6800000000001 466.752 323.4560000000002 471.04 319.1680000000001C488.128 302.5280000000002 488.512 275.2000000000002 471.488 258.1760000000002zM937.4080000000002 113.9200000000001C937.4080000000002 101.9520000000001 935.232 89.6 931.0080000000002 77.6320000000001C929.7280000000002 74.24 928.4480000000002 70.7840000000001 926.7200000000003 67.3920000000001C919.4880000000002 52.032 910.0800000000002 37.504 897.7280000000002 23.8720000000001C876.8000000000002 0.8320000000001 853.7600000000002 -15.8079999999999 827.7120000000002 -26.496C827.3280000000002 -26.496 826.8800000000002 -26.88 826.4320000000002 -26.88C801.2800000000002 -37.12 773.9520000000002 -42.688 744.5120000000003 -42.688C700.9920000000003 -42.688 654.5280000000002 -32.448 605.4400000000003 -11.52C556.3520000000003 9.3440000000001 507.3280000000003 37.504 458.6880000000003 72.96C442.0480000000003 85.312 425.4080000000003 97.664 409.6000000000003 110.912L549.1200000000002 250.432C561.0880000000002 241.472 571.7120000000002 234.624 580.6720000000003 229.952C582.8480000000003 229.12 585.4080000000002 227.8400000000001 588.3520000000002 226.56C591.8080000000002 225.28 595.2000000000002 224.832 599.0400000000002 224.832C606.2720000000002 224.832 611.8400000000001 227.392 616.5120000000002 232.064L648.9600000000002 264.064C659.6480000000001 274.752 669.8880000000001 282.88 679.6800000000002 288C689.4720000000002 293.952 699.3280000000002 296.9600000000001 709.9520000000002 296.9600000000001C718.0800000000003 296.9600000000001 726.5920000000002 295.2320000000001 736.0000000000002 291.3920000000001C745.4080000000002 287.552 755.2000000000003 281.9840000000001 765.8880000000003 274.7520000000001L907.0720000000002 174.4640000000001C918.2080000000002 166.7840000000001 925.8880000000001 157.8240000000001 930.5600000000002 147.2000000000001C934.8480000000002 136.5120000000001 937.4080000000002 125.8240000000001 937.4080000000002 113.9200000000001z" />
    <glyph glyph-name="phone-1"
      unicode="&#x70;&#x68;&#x6F;&#x6E;&#x65;"
      horiz-adv-x="1024" d="M751.808 437.312C733.4399999999999 437.312 718.912 452.288 718.912 470.208C718.912 485.952 703.168 518.848 676.672 547.392C650.688 575.1680000000001 622.08 591.3600000000001 598.2080000000001 591.3600000000001C579.84 591.3600000000001 565.3760000000001 606.272 565.3760000000001 624.192S580.2880000000001 657.0880000000001 598.2080000000001 657.0880000000001C640.8960000000001 657.0880000000001 685.6320000000001 634.048 724.9280000000001 592.6400000000001C761.6000000000001 553.7920000000001 785.0880000000001 505.6000000000001 785.0880000000001 470.5920000000001C785.0880000000001 452.2880000000001 770.176 437.3120000000002 751.8080000000001 437.3120000000002zM905.792 437.3760000000001C887.488 437.3760000000001 872.96 452.288 872.96 470.208C872.96 621.696 749.6320000000001 744.576 598.5920000000001 744.576C580.2880000000001 744.576 565.7600000000001 759.488 565.7600000000001 777.408S580.2880000000001 810.688 598.2080000000001 810.688C785.9200000000001 810.688 938.624 657.9200000000001 938.624 470.208C938.624 452.288 923.712 437.376 905.792 437.376zM471.4880000000001 258.1760000000001L392.512 179.2000000000001C375.872 162.5600000000001 349.44 162.5600000000001 332.416 178.816C327.68 183.4880000000001 323.008 187.7760000000001 318.272 192.448C274.368 236.8 234.688 283.328 199.296 331.968C164.288 380.608 136.128 429.248 115.648 477.4399999999999C95.616 526.0799999999999 85.312 572.608 85.312 616.9599999999999C85.312 646.016 90.432 673.728 100.672 699.328C110.976 725.376 127.168 749.2479999999999 149.76 770.56C177.088 797.4399999999999 206.912 810.6879999999999 238.528 810.6879999999999C250.432 810.6879999999999 262.4 808.1279999999999 273.088 803.0079999999999C284.16 797.8879999999999 293.952 790.208 301.632 779.136L400.64 639.616C408.32 628.9279999999999 413.8879999999999 619.136 417.728 609.728C421.568 600.768 423.68 591.808 423.68 583.68C423.68 573.4399999999999 420.736 563.1999999999999 414.72 553.4079999999999C409.216 543.616 401.088 533.376 390.848 523.136L358.4 489.408C353.728 484.736 351.616 479.168 351.616 472.32C351.616 468.928 352 465.92 352.832 462.528C354.176 459.136 355.392 456.576 356.288 454.016C363.968 439.9360000000001 377.216 421.5680000000001 395.968 399.36C415.168 377.216 435.648 354.5600000000001 457.856 331.9680000000001C462.08 327.6800000000001 466.752 323.4560000000002 471.04 319.1680000000001C488.128 302.5280000000002 488.512 275.2000000000002 471.488 258.1760000000002zM937.4080000000002 113.9200000000001C937.4080000000002 101.9520000000001 935.232 89.6 931.0080000000002 77.6320000000001C929.7280000000002 74.24 928.4480000000002 70.7840000000001 926.7200000000003 67.3920000000001C919.4880000000002 52.032 910.0800000000002 37.504 897.7280000000002 23.8720000000001C876.8000000000002 0.8320000000001 853.7600000000002 -15.8079999999999 827.7120000000002 -26.496C827.3280000000002 -26.496 826.8800000000002 -26.88 826.4320000000002 -26.88C801.2800000000002 -37.12 773.9520000000002 -42.688 744.5120000000003 -42.688C700.9920000000003 -42.688 654.5280000000002 -32.448 605.4400000000003 -11.52C556.3520000000003 9.3440000000001 507.3280000000003 37.504 458.6880000000003 72.96C442.0480000000003 85.312 425.4080000000003 97.664 409.6000000000003 110.912L549.1200000000002 250.432C561.0880000000002 241.472 571.7120000000002 234.624 580.6720000000003 229.952C582.8480000000003 229.12 585.4080000000002 227.8400000000001 588.3520000000002 226.56C591.8080000000002 225.28 595.2000000000002 224.832 599.0400000000002 224.832C606.2720000000002 224.832 611.8400000000001 227.392 616.5120000000002 232.064L648.9600000000002 264.064C659.6480000000001 274.752 669.8880000000001 282.88 679.6800000000002 288C689.4720000000002 293.952 699.3280000000002 296.9600000000001 709.9520000000002 296.9600000000001C718.0800000000003 296.9600000000001 726.5920000000002 295.2320000000001 736.0000000000002 291.3920000000001C745.4080000000002 287.552 755.2000000000003 281.9840000000001 765.8880000000003 274.7520000000001L907.0720000000002 174.4640000000001C918.2080000000002 166.7840000000001 925.8880000000001 157.8240000000001 930.5600000000002 147.2000000000001C934.8480000000002 136.5120000000001 937.4080000000002 125.8240000000001 937.4080000000002 113.9200000000001z" />
    <glyph glyph-name="messages"
      unicode="&#xE018;"
      horiz-adv-x="1024" d="M788.032 177.92L804.672 43.136C808.96 7.68 771.008 -17.024 740.672 1.28L593.088 89.216C582.848 95.168 580.288 107.968 585.7919999999999 118.208C607.1679999999999 157.44 618.6879999999999 201.856 618.6879999999999 246.208C618.6879999999999 402.368 484.6719999999999 529.536 319.9999999999999 529.536C286.2719999999999 529.536 253.4399999999999 524.4159999999999 222.7199999999999 514.1759999999999C206.9119999999999 509.0559999999999 191.5519999999999 523.52 195.3919999999999 539.776C234.24 695.04 383.552 810.688 561.92 810.688C770.112 810.688 938.6879999999998 653.248 938.6879999999998 459.136C938.6879999999998 343.9359999999999 879.3599999999999 241.92 788.0319999999999 177.92zM554.6880000000001 246.208C554.6880000000001 195.392 535.8720000000001 148.48 504.3200000000001 111.3599999999999C462.0800000000001 60.1599999999999 395.0720000000001 27.3279999999999 320.0000000000001 27.3279999999999L208.6400000000001 -38.8480000000002C189.8880000000001 -50.3680000000002 166.0160000000001 -34.5600000000002 168.5760000000001 -12.8000000000002L179.2000000000001 71.2319999999999C122.0480000000001 110.9119999999998 85.3120000000001 174.5279999999999 85.3120000000001 246.2079999999999C85.3120000000001 321.2799999999999 125.4400000000001 387.3919999999999 186.8800000000001 426.6879999999999C224.8960000000001 451.3919999999999 270.5280000000002 465.4719999999999 320.0000000000001 465.4719999999999C449.7280000000001 465.4719999999999 554.6880000000001 367.3599999999999 554.6880000000001 246.2079999999999z" />
    <glyph glyph-name="messages-1"
      unicode="&#x6D;&#x65;&#x73;&#x73;&#x61;&#x67;&#x65;&#x73;"
      horiz-adv-x="1024" d="M788.032 177.92L804.672 43.136C808.96 7.68 771.008 -17.024 740.672 1.28L593.088 89.216C582.848 95.168 580.288 107.968 585.7919999999999 118.208C607.1679999999999 157.44 618.6879999999999 201.856 618.6879999999999 246.208C618.6879999999999 402.368 484.6719999999999 529.536 319.9999999999999 529.536C286.2719999999999 529.536 253.4399999999999 524.4159999999999 222.7199999999999 514.1759999999999C206.9119999999999 509.0559999999999 191.5519999999999 523.52 195.3919999999999 539.776C234.24 695.04 383.552 810.688 561.92 810.688C770.112 810.688 938.6879999999998 653.248 938.6879999999998 459.136C938.6879999999998 343.9359999999999 879.3599999999999 241.92 788.0319999999999 177.92zM554.6880000000001 246.208C554.6880000000001 195.392 535.8720000000001 148.48 504.3200000000001 111.3599999999999C462.0800000000001 60.1599999999999 395.0720000000001 27.3279999999999 320.0000000000001 27.3279999999999L208.6400000000001 -38.8480000000002C189.8880000000001 -50.3680000000002 166.0160000000001 -34.5600000000002 168.5760000000001 -12.8000000000002L179.2000000000001 71.2319999999999C122.0480000000001 110.9119999999998 85.3120000000001 174.5279999999999 85.3120000000001 246.2079999999999C85.3120000000001 321.2799999999999 125.4400000000001 387.3919999999999 186.8800000000001 426.6879999999999C224.8960000000001 451.3919999999999 270.5280000000002 465.4719999999999 320.0000000000001 465.4719999999999C449.7280000000001 465.4719999999999 554.6880000000001 367.3599999999999 554.6880000000001 246.2079999999999z" />
    <glyph glyph-name="location"
      unicode="&#xE019;"
      horiz-adv-x="1024" d="M879.787 535.467C834.987 732.587 663.04 821.333 512 821.333H511.573C360.96 821.333 188.587 733.013 143.787 535.893C93.867 315.7330000000001 228.693 129.28 350.72 11.947C395.947 -31.573 453.973 -53.333 512 -53.333S628.053 -31.573 672.8530000000001 11.947C794.8800000000001 129.28 929.7070000000002 315.307 879.787 535.467zM512 321.707C437.76 321.707 377.6 381.867 377.6 456.107C377.6 530.347 437.76 590.507 512 590.507C586.24 590.507 646.4 530.347 646.4 456.107C646.4 381.867 586.24 321.707 512 321.707z" />
    <glyph glyph-name="location-1"
      unicode="&#x6C;&#x6F;&#x63;&#x61;&#x74;&#x69;&#x6F;&#x6E;"
      horiz-adv-x="1024" d="M879.787 535.467C834.987 732.587 663.04 821.333 512 821.333H511.573C360.96 821.333 188.587 733.013 143.787 535.893C93.867 315.7330000000001 228.693 129.28 350.72 11.947C395.947 -31.573 453.973 -53.333 512 -53.333S628.053 -31.573 672.8530000000001 11.947C794.8800000000001 129.28 929.7070000000002 315.307 879.787 535.467zM512 321.707C437.76 321.707 377.6 381.867 377.6 456.107C377.6 530.347 437.76 590.507 512 590.507C586.24 590.507 646.4 530.347 646.4 456.107C646.4 381.867 586.24 321.707 512 321.707z" />
    <glyph glyph-name="edit"
      unicode="&#xE01A;"
      horiz-adv-x="1024" d="M469.312 778.688H384Q237.248 778.688 177.28 718.72Q117.312 658.752 117.312 512V256Q117.312 -10.624 384 -10.624H640Q906.624 -10.624 906.624 256V341.376Q906.624 354.624 916.032 363.968Q925.376 373.376 938.624 373.376T961.28 363.968Q970.624 354.6239999999999 970.624 341.376V256Q970.624 82.752 891.9680000000001 4.032Q813.248 -74.624 640.0000000000001 -74.624H384Q210.752 -74.624 132.032 4.0319999999999Q53.312 82.752 53.312 255.9999999999999V512Q53.312 842.688 384 842.688H469.312Q482.56 842.688 491.968 833.344Q501.312 823.936 501.312 810.688T491.968 788.032Q482.56 778.688 469.312 778.688zM776.384 852.736Q847.808 859.776 917.76 789.76Q987.776 719.744 980.736 648.384Q975.104 591.104 917.76 533.76L581.184 197.184Q549.312 166.336 507.136 160.3199999999999L378.56 141.952Q327.872 134.976 295.36 167.424Q262.528 200.064 269.952 250.688L288.32 379.0080000000001Q294.336 422.4000000000001 325.504 453.568L661.76 789.76Q719.104 847.104 776.384 852.736zM707.008 744.512L370.752 408.32Q354.752 392.256 351.68 370.1760000000001L333.312 241.664Q330.56 222.656 340.48 212.736Q350.5920000000001 202.688 369.7920000000001 205.376L498.112 223.68Q519.744 226.752 536.7040000000001 243.136L872.5120000000001 579.008Q913.6640000000002 620.16 917.056 654.656Q921.088 695.9359999999999 872.5120000000001 744.512Q823.936 793.088 782.6560000000001 789.0559999999999Q748.1600000000001 785.664 707.008 744.512zM667.008 727.552Q708.16 580.736 855.68 538.944Q868.4159999999999 535.36 874.88 523.7760000000001Q881.344 512.192 877.76 499.456Q874.112 486.72 862.592 480.256Q851.008 473.792 838.208 477.376Q656.192 528.96 605.376 710.272Q601.792 723.072 608.3199999999999 734.592Q614.784 746.176 627.52 749.76Q640.3199999999999 753.344 651.84 746.816Q663.424 740.3520000000001 667.008 727.552z" />
    <glyph glyph-name="edit-1"
      unicode="&#x65;&#x64;&#x69;&#x74;"
      horiz-adv-x="1024" d="M469.312 778.688H384Q237.248 778.688 177.28 718.72Q117.312 658.752 117.312 512V256Q117.312 -10.624 384 -10.624H640Q906.624 -10.624 906.624 256V341.376Q906.624 354.624 916.032 363.968Q925.376 373.376 938.624 373.376T961.28 363.968Q970.624 354.6239999999999 970.624 341.376V256Q970.624 82.752 891.9680000000001 4.032Q813.248 -74.624 640.0000000000001 -74.624H384Q210.752 -74.624 132.032 4.0319999999999Q53.312 82.752 53.312 255.9999999999999V512Q53.312 842.688 384 842.688H469.312Q482.56 842.688 491.968 833.344Q501.312 823.936 501.312 810.688T491.968 788.032Q482.56 778.688 469.312 778.688zM776.384 852.736Q847.808 859.776 917.76 789.76Q987.776 719.744 980.736 648.384Q975.104 591.104 917.76 533.76L581.184 197.184Q549.312 166.336 507.136 160.3199999999999L378.56 141.952Q327.872 134.976 295.36 167.424Q262.528 200.064 269.952 250.688L288.32 379.0080000000001Q294.336 422.4000000000001 325.504 453.568L661.76 789.76Q719.104 847.104 776.384 852.736zM707.008 744.512L370.752 408.32Q354.752 392.256 351.68 370.1760000000001L333.312 241.664Q330.56 222.656 340.48 212.736Q350.5920000000001 202.688 369.7920000000001 205.376L498.112 223.68Q519.744 226.752 536.7040000000001 243.136L872.5120000000001 579.008Q913.6640000000002 620.16 917.056 654.656Q921.088 695.9359999999999 872.5120000000001 744.512Q823.936 793.088 782.6560000000001 789.0559999999999Q748.1600000000001 785.664 707.008 744.512zM667.008 727.552Q708.16 580.736 855.68 538.944Q868.4159999999999 535.36 874.88 523.7760000000001Q881.344 512.192 877.76 499.456Q874.112 486.72 862.592 480.256Q851.008 473.792 838.208 477.376Q656.192 528.96 605.376 710.272Q601.792 723.072 608.3199999999999 734.592Q614.784 746.176 627.52 749.76Q640.3199999999999 753.344 651.84 746.816Q663.424 740.3520000000001 667.008 727.552z" />
    <glyph glyph-name="line-messages"
      unicode="&#xE01B;"
      horiz-adv-x="1024" d="M822.144 163.2000000000001L836.48 47.0400000000001Q842.048 0.6400000000001 803.136 -24.7679999999999Q764.096 -50.2399999999999 724.16 -26.0479999999999L553.024 75.648Q526.016 76.096 500.032 79.6800000000001Q486.848 81.4720000000001 478.848 92.032Q470.848 102.592 472.6399999999999 115.712Q473.9199999999999 124.992 479.9359999999999 132.096Q522.6879999999999 182.336 522.6879999999999 246.208Q522.6879999999999 433.536 319.9999999999999 433.536Q255.9999999999999 433.536 204.3519999999999 399.872Q193.2799999999999 392.64 180.2879999999999 395.392Q167.2959999999999 398.08 160.0639999999999 409.216Q156.0319999999999 415.488 155.1359999999999 422.848Q153.2159999999999 438.976 153.2159999999999 459.136Q153.2159999999999 618.624 273.664 731.0719999999999Q393.216 842.688 561.92 842.688Q730.688 842.688 850.24 731.072Q970.688 618.624 970.688 459.136Q970.688 276.288 822.144 163.2000000000001zM756.288 174.0160000000001Q753.984 193.0880000000001 769.7280000000001 204.1600000000001Q906.6880000000002 300.1600000000001 906.6880000000002 459.1360000000001Q906.6880000000002 590.8480000000001 806.5280000000001 684.288Q705.4720000000001 778.6880000000001 561.9200000000001 778.6880000000001Q418.4320000000001 778.6880000000001 317.3120000000001 684.288Q224.6400000000001 597.8240000000001 217.7280000000001 478.5920000000001Q265.536 497.536 320 497.536Q586.688 497.536 586.688 246.208Q586.688 188.736 561.6 139.52H561.9200000000001Q570.7520000000001 139.52 578.3040000000001 135.04L757.3120000000001 28.672Q762.8160000000001 25.3440000000001 768.1920000000001 28.864Q773.7600000000001 32.5120000000001 772.9280000000001 39.168zM586.624 246.2080000000001Q586.624 158.7840000000001 528.7040000000001 90.624Q452.8000000000001 -1.3439999999999 328.9600000000001 -4.544L224.96 -66.304Q194.048 -85.312 163.072 -65.088Q132.48 -45.12 136.704 -9.024L145.088 56.704Q53.312 129.3439999999999 53.312 246.208Q53.312 379.328 169.6 453.6319999999999Q236.9280000000001 497.472 320 497.472Q586.624 497.472 586.624 246.208zM522.624 246.2080000000001Q522.624 433.4720000000001 320 433.4720000000001Q255.936 433.4720000000001 204.096 399.6800000000001Q117.312 344.2560000000001 117.312 246.2080000000001Q117.312 153.1520000000001 197.44 97.5360000000001Q213.376 86.4640000000001 210.944 67.2000000000001L201.664 -5.76L303.616 54.848Q311.168 59.328 320 59.328Q419.904 59.328 479.936 132.096Q522.624 182.336 522.624 246.208z" />
    <glyph glyph-name="line-messages-1"
      unicode="&#x6C;&#x69;&#x6E;&#x65;&#x5F;&#x6D;&#x65;&#x73;&#x73;&#x61;&#x67;&#x65;&#x73;"
      horiz-adv-x="1024" d="M822.144 163.2000000000001L836.48 47.0400000000001Q842.048 0.6400000000001 803.136 -24.7679999999999Q764.096 -50.2399999999999 724.16 -26.0479999999999L553.024 75.648Q526.016 76.096 500.032 79.6800000000001Q486.848 81.4720000000001 478.848 92.032Q470.848 102.592 472.6399999999999 115.712Q473.9199999999999 124.992 479.9359999999999 132.096Q522.6879999999999 182.336 522.6879999999999 246.208Q522.6879999999999 433.536 319.9999999999999 433.536Q255.9999999999999 433.536 204.3519999999999 399.872Q193.2799999999999 392.64 180.2879999999999 395.392Q167.2959999999999 398.08 160.0639999999999 409.216Q156.0319999999999 415.488 155.1359999999999 422.848Q153.2159999999999 438.976 153.2159999999999 459.136Q153.2159999999999 618.624 273.664 731.0719999999999Q393.216 842.688 561.92 842.688Q730.688 842.688 850.24 731.072Q970.688 618.624 970.688 459.136Q970.688 276.288 822.144 163.2000000000001zM756.288 174.0160000000001Q753.984 193.0880000000001 769.7280000000001 204.1600000000001Q906.6880000000002 300.1600000000001 906.6880000000002 459.1360000000001Q906.6880000000002 590.8480000000001 806.5280000000001 684.288Q705.4720000000001 778.6880000000001 561.9200000000001 778.6880000000001Q418.4320000000001 778.6880000000001 317.3120000000001 684.288Q224.6400000000001 597.8240000000001 217.7280000000001 478.5920000000001Q265.536 497.536 320 497.536Q586.688 497.536 586.688 246.208Q586.688 188.736 561.6 139.52H561.9200000000001Q570.7520000000001 139.52 578.3040000000001 135.04L757.3120000000001 28.672Q762.8160000000001 25.3440000000001 768.1920000000001 28.864Q773.7600000000001 32.5120000000001 772.9280000000001 39.168zM586.624 246.2080000000001Q586.624 158.7840000000001 528.7040000000001 90.624Q452.8000000000001 -1.3439999999999 328.9600000000001 -4.544L224.96 -66.304Q194.048 -85.312 163.072 -65.088Q132.48 -45.12 136.704 -9.024L145.088 56.704Q53.312 129.3439999999999 53.312 246.208Q53.312 379.328 169.6 453.6319999999999Q236.9280000000001 497.472 320 497.472Q586.624 497.472 586.624 246.208zM522.624 246.2080000000001Q522.624 433.4720000000001 320 433.4720000000001Q255.936 433.4720000000001 204.096 399.6800000000001Q117.312 344.2560000000001 117.312 246.2080000000001Q117.312 153.1520000000001 197.44 97.5360000000001Q213.376 86.4640000000001 210.944 67.2000000000001L201.664 -5.76L303.616 54.848Q311.168 59.328 320 59.328Q419.904 59.328 479.936 132.096Q522.624 182.336 522.624 246.208z" />
    <glyph glyph-name="key"
      unicode="&#xE01C;"
      horiz-adv-x="1024" d="M866.944 236.352Q721.7919999999999 91.8399999999999 529.3439999999999 143.232L341.76 -43.9680000000001Q305.088 -81.7280000000001 251.0079999999999 -73.8560000000001L158.2079999999999 -61.1200000000001Q79.1679999999999 -50.1120000000001 66.9439999999999 29.7599999999999L54.08 123.264Q46.528 175.1040000000001 83.712 213.4400000000001L271.296 401.0240000000001Q220.352 594.816 364.864 738.6880000000001Q468.6079999999999 842.368 615.5519999999999 842.368T866.56 738.624Q970.624 634.88 970.752 487.488Q970.816 340.224 867.0079999999999 236.416zM821.76 281.664L821.824 281.728Q906.816 366.7199999999999 906.752 487.4879999999999Q906.688 608.3199999999999 821.376 693.3119999999999Q736.064 778.3679999999999 615.5519999999999 778.3679999999999Q495.1039999999999 778.3679999999999 409.9839999999999 693.3119999999999Q285.8879999999999 569.7919999999999 337.7919999999999 401.088Q343.488 382.7199999999999 329.856 369.088L129.664 168.896Q114.368 153.1519999999999 117.504 131.968L130.24 39.424Q135.232 6.72 166.976 2.304L260.224 -10.5600000000001Q281.92 -13.696 296.576 1.3439999999999L497.5359999999999 201.856Q511.232 215.552 529.664 209.792Q696.96 157.4400000000001 821.76 281.664zM316.608 172.352L414.784 74.24Q424.128 64.896 424.128 51.648Q424.128 38.336 414.784 28.9920000000001Q405.376 19.648 392.128 19.648Q378.88 19.5840000000001 369.536 28.9920000000001L271.36 127.1040000000001Q262.016 136.5120000000001 262.016 149.76T271.36 172.352Q280.7680000000001 181.76 294.016 181.76T316.608 172.352zM618.688 394.688Q578.944 394.688 550.784 422.784Q522.688 450.944 522.688 490.688Q522.688 586.688 618.688 586.688T714.688 490.688Q714.688 394.688 618.688 394.688zM618.688 458.688Q650.688 458.688 650.688 490.688T618.688 522.688Q586.688 522.688 586.688 490.688T618.688 458.688z" />
    <glyph glyph-name="key-1"
      unicode="&#x6B;&#x65;&#x79;"
      horiz-adv-x="1024" d="M866.944 236.352Q721.7919999999999 91.8399999999999 529.3439999999999 143.232L341.76 -43.9680000000001Q305.088 -81.7280000000001 251.0079999999999 -73.8560000000001L158.2079999999999 -61.1200000000001Q79.1679999999999 -50.1120000000001 66.9439999999999 29.7599999999999L54.08 123.264Q46.528 175.1040000000001 83.712 213.4400000000001L271.296 401.0240000000001Q220.352 594.816 364.864 738.6880000000001Q468.6079999999999 842.368 615.5519999999999 842.368T866.56 738.624Q970.624 634.88 970.752 487.488Q970.816 340.224 867.0079999999999 236.416zM821.76 281.664L821.824 281.728Q906.816 366.7199999999999 906.752 487.4879999999999Q906.688 608.3199999999999 821.376 693.3119999999999Q736.064 778.3679999999999 615.5519999999999 778.3679999999999Q495.1039999999999 778.3679999999999 409.9839999999999 693.3119999999999Q285.8879999999999 569.7919999999999 337.7919999999999 401.088Q343.488 382.7199999999999 329.856 369.088L129.664 168.896Q114.368 153.1519999999999 117.504 131.968L130.24 39.424Q135.232 6.72 166.976 2.304L260.224 -10.5600000000001Q281.92 -13.696 296.576 1.3439999999999L497.5359999999999 201.856Q511.232 215.552 529.664 209.792Q696.96 157.4400000000001 821.76 281.664zM316.608 172.352L414.784 74.24Q424.128 64.896 424.128 51.648Q424.128 38.336 414.784 28.9920000000001Q405.376 19.648 392.128 19.648Q378.88 19.5840000000001 369.536 28.9920000000001L271.36 127.1040000000001Q262.016 136.5120000000001 262.016 149.76T271.36 172.352Q280.7680000000001 181.76 294.016 181.76T316.608 172.352zM618.688 394.688Q578.944 394.688 550.784 422.784Q522.688 450.944 522.688 490.688Q522.688 586.688 618.688 586.688T714.688 490.688Q714.688 394.688 618.688 394.688zM618.688 458.688Q650.688 458.688 650.688 490.688T618.688 522.688Q586.688 522.688 586.688 490.688T618.688 458.688z" />
    <glyph glyph-name="logout"
      unicode="&#xE01D;"
      horiz-adv-x="1024" d="M347.84 576.192Q369.024 821.76 644.736 821.76H650.24Q806.528 821.76 877.952 750.336Q949.376 678.976 949.376 522.688V244.48Q949.376 88.192 877.952 16.768Q806.528 -54.6559999999999 650.24 -54.6559999999999H644.736Q370.88 -54.6559999999999 348.288 187.3280000000001Q347.072 200.5120000000001 355.5200000000001 210.6880000000001Q364.0320000000001 220.9280000000001 377.2160000000001 222.1440000000001Q390.4000000000001 223.3600000000001 400.5760000000001 214.9120000000002Q410.8160000000001 206.4640000000002 412.0320000000001 193.2800000000002Q429.1840000000001 9.3440000000002 644.7360000000001 9.3440000000002H650.2400000000001Q885.3760000000001 9.3440000000002 885.3760000000001 244.4800000000002V522.688Q885.3760000000001 757.76 650.2400000000001 757.76H644.7360000000001Q427.7120000000001 757.76 411.6480000000002 570.688Q410.4960000000002 557.5039999999999 400.3840000000002 548.928Q390.2080000000002 540.4159999999999 377.0240000000001 541.568Q363.7760000000001 542.656 355.2640000000001 552.832Q346.7520000000001 562.944 347.8400000000002 576.192zM640 352H154.432Q141.184 352 131.84 361.3440000000001Q122.432 370.7520000000001 122.432 384.0000000000001T131.84 406.6560000000001Q141.184 416 154.432 416H640Q653.248 416 662.592 406.656Q672 397.248 672 384T662.592 361.3440000000001Q653.248 352 640 352zM272.256 504.32L151.936 384L272.256 263.6800000000001Q281.6 254.336 281.6 241.0880000000001T272.256 218.4320000000001Q262.848 209.0880000000001 249.6 209.0880000000001T227.008 218.4320000000001L84.032 361.408Q74.688 370.7520000000001 74.688 384T84.032 406.656L227.008 549.568Q236.352 558.912 249.6 558.912T272.256 549.568Q281.6 540.2239999999999 281.6 526.912Q281.6 513.664 272.256 504.32z" />
    <glyph glyph-name="logout-1"
      unicode="&#x6C;&#x6F;&#x67;&#x6F;&#x75;&#x74;"
      horiz-adv-x="1024" d="M347.84 576.192Q369.024 821.76 644.736 821.76H650.24Q806.528 821.76 877.952 750.336Q949.376 678.976 949.376 522.688V244.48Q949.376 88.192 877.952 16.768Q806.528 -54.6559999999999 650.24 -54.6559999999999H644.736Q370.88 -54.6559999999999 348.288 187.3280000000001Q347.072 200.5120000000001 355.5200000000001 210.6880000000001Q364.0320000000001 220.9280000000001 377.2160000000001 222.1440000000001Q390.4000000000001 223.3600000000001 400.5760000000001 214.9120000000002Q410.8160000000001 206.4640000000002 412.0320000000001 193.2800000000002Q429.1840000000001 9.3440000000002 644.7360000000001 9.3440000000002H650.2400000000001Q885.3760000000001 9.3440000000002 885.3760000000001 244.4800000000002V522.688Q885.3760000000001 757.76 650.2400000000001 757.76H644.7360000000001Q427.7120000000001 757.76 411.6480000000002 570.688Q410.4960000000002 557.5039999999999 400.3840000000002 548.928Q390.2080000000002 540.4159999999999 377.0240000000001 541.568Q363.7760000000001 542.656 355.2640000000001 552.832Q346.7520000000001 562.944 347.8400000000002 576.192zM640 352H154.432Q141.184 352 131.84 361.3440000000001Q122.432 370.7520000000001 122.432 384.0000000000001T131.84 406.6560000000001Q141.184 416 154.432 416H640Q653.248 416 662.592 406.656Q672 397.248 672 384T662.592 361.3440000000001Q653.248 352 640 352zM272.256 504.32L151.936 384L272.256 263.6800000000001Q281.6 254.336 281.6 241.0880000000001T272.256 218.4320000000001Q262.848 209.0880000000001 249.6 209.0880000000001T227.008 218.4320000000001L84.032 361.408Q74.688 370.7520000000001 74.688 384T84.032 406.656L227.008 549.568Q236.352 558.912 249.6 558.912T272.256 549.568Q281.6 540.2239999999999 281.6 526.912Q281.6 513.664 272.256 504.32z" />
    <glyph glyph-name="reserve"
      unicode="&#xE01E;"
      horiz-adv-x="1024" d="M809.408 -74.624H212.032Q52.032 -74.624 52.032 85.376V128Q52.032 202.688 126.72 202.688H894.72Q925.568 202.688 947.52 180.8Q969.408 158.848 969.408 128V85.376Q969.408 -74.624 809.408 -74.624zM809.408 -10.624Q878.6560000000001 -10.624 895.04 13.12Q905.408 28.096 905.408 85.376V128Q905.408 138.688 894.72 138.688H126.72Q116.032 138.688 116.032 128V85.376Q116.032 28.096 126.4 13.12Q142.784 -10.624 212.0320000000001 -10.624zM916.032 341.376V170.688Q916.032 157.44 906.688 148.0320000000001Q897.28 138.688 884.032 138.688H139.52Q126.272 138.688 116.864 148.0320000000001Q107.52 157.4400000000001 107.52 170.688V341.376Q107.52 643.392 402.496 706.304Q440.192 714.688 480.832 714.688H542.72Q583.744 714.688 621.76 706.24Q916.032 642.688 916.032 341.376zM852.032 341.376Q852.032 591.04 607.8720000000001 643.776Q576.7040000000001 650.688 542.72 650.688H480.8320000000001Q447.2320000000001 650.688 415.8080000000001 643.712Q171.52 591.616 171.52 341.376V202.688H852.0319999999999zM650.624 704Q650.624 684.8 645.696 666.56Q642.304 654.208 631.36 647.616Q620.352 640.96 607.8720000000001 643.7760000000001Q576.7040000000001 650.688 542.72 650.688H480.8320000000001Q447.2320000000001 650.688 416.0640000000001 643.7760000000001Q403.5840000000001 640.96 392.6400000000001 647.616Q381.6320000000001 654.2080000000001 378.3040000000001 666.56Q373.3120000000001 684.8 373.3120000000001 704Q373.3120000000001 761.408 413.9520000000001 802.048T512 842.688Q569.408 842.688 610.048 802.048Q650.624 761.408 650.624 704zM586.432 712.192Q582.464 778.688 512 778.688T437.568 712.192Q458.816 714.688 480.832 714.688H542.72Q564.9920000000001 714.688 586.432 712.192zM640 394.688H384Q370.752 394.688 361.344 404.032Q352 413.44 352 426.688T361.344 449.344Q370.752 458.688 384 458.688H640Q653.248 458.688 662.656 449.344Q672 439.936 672 426.688T662.656 404.032Q653.2479999999999 394.688 640 394.688z" />
    </font>
</defs>
</svg>
